<svg id="Icon-call" xmlns="http://www.w3.org/2000/svg" width="25.523" height="25.523" viewBox="0 0 25.523 25.523">
  <g id="Component_27_2" data-name="Component 27 – 2">
    <circle id="Ellipse_15" data-name="Ellipse 15" cx="12.762" cy="12.762" r="12.762" fill="#fafdff"/>
  </g>
  <path id="Icon_ionic-ios-call" data-name="Icon ionic-ios-call" d="M18.423,15.736a12.051,12.051,0,0,0-2.517-1.684c-.754-.362-1.031-.355-1.565.03-.444.321-.732.62-1.244.508a7.42,7.42,0,0,1-2.5-1.849,7.366,7.366,0,0,1-1.849-2.5c-.108-.515.19-.8.508-1.244.385-.534.4-.81.03-1.565A11.813,11.813,0,0,0,7.6,4.916c-.549-.549-.672-.43-.975-.321a5.547,5.547,0,0,0-.893.474A2.693,2.693,0,0,0,4.663,6.2c-.213.459-.459,1.315.8,3.548A19.8,19.8,0,0,0,8.94,14.391h0l0,0,0,0h0A19.876,19.876,0,0,0,13.59,17.88c2.234,1.255,3.089,1.008,3.548.8A2.647,2.647,0,0,0,18.27,17.6a5.547,5.547,0,0,0,.474-.893C18.853,16.408,18.976,16.285,18.423,15.736Z" transform="translate(1.098 0.752)" fill="#6b8598"/>
</svg>
