<svg xmlns="http://www.w3.org/2000/svg" width="33.283" height="28.105" viewBox="0 0 33.283 28.105">
  <g id="Icon-communication" transform="translate(326 -340)">
    <g id="Group_97" data-name="Group 97" transform="translate(-326 340)">
      <path id="Path_39" data-name="Path 39" d="M83.628,123.484a15.374,15.374,0,0,1-8.283-2.345l-4.429,1.476a.811.811,0,0,1-1.025-1.03l1.468-4.339a11.1,11.1,0,0,1-1.828-6.065c0-6.784,6.324-12.3,14.1-12.3s14.1,5.519,14.1,12.3S91.4,123.484,83.628,123.484Zm-8.167-4.05a.811.811,0,0,1,.454.139,13.709,13.709,0,0,0,7.713,2.288c6.878,0,12.474-4.791,12.474-10.679S90.506,100.5,83.628,100.5s-12.474,4.791-12.474,10.679a9.528,9.528,0,0,0,1.767,5.479.811.811,0,0,1,.1.726l-1.074,3.174,3.253-1.084A.811.811,0,0,1,75.461,119.434Z" transform="translate(-69.532 -98.879)"/>
      <path id="Path_40" data-name="Path 40" d="M249.429,248.384a10.133,10.133,0,0,1-8.23-3.944.811.811,0,0,1,1.31-.958,8.508,8.508,0,0,0,6.92,3.279,8.979,8.979,0,0,0,5.052-1.5.811.811,0,0,1,.711-.1l1.689.563-.553-1.636a.811.811,0,0,1,.1-.725,6.161,6.161,0,0,0,1.143-3.542,6.981,6.981,0,0,0-4.592-6.242.811.811,0,1,1,.621-1.5,8.593,8.593,0,0,1,5.594,7.741,7.736,7.736,0,0,1-1.205,4.125l.949,2.805a.811.811,0,0,1-1.025,1.03l-2.868-.956A10.644,10.644,0,0,1,249.429,248.384Z" transform="translate(-225.915 -220.278)"/>
      <path id="Path_41" data-name="Path 41" d="M217.884,226.3a1.058,1.058,0,1,0-1.057-1.058A1.058,1.058,0,0,0,217.884,226.3Z" transform="translate(-203.641 -212.937)" fill="#040000"/>
      <path id="Path_41_-_Outline" data-name="Path 41 - Outline" d="M217.442,225.916a1.116,1.116,0,1,1,1.117-1.116A1.108,1.108,0,0,1,217.442,225.916Zm0-2.116a1,1,0,1,0,.708.293A.993.993,0,0,0,217.442,223.8Z" transform="translate(-203.199 -212.495)" fill="#707070"/>
      <path id="Path_42" data-name="Path 42" d="M153.159,226.3a1.058,1.058,0,1,0-1.057-1.058A1.058,1.058,0,0,0,153.159,226.3Z" transform="translate(-144.625 -212.937)" fill="#040000"/>
      <path id="Path_42_-_Outline" data-name="Path 42 - Outline" d="M152.717,225.916a1.116,1.116,0,1,1,1.117-1.116A1.108,1.108,0,0,1,152.717,225.916Zm0-2.116a1,1,0,1,0,.708.293A.993.993,0,0,0,152.717,223.8Z" transform="translate(-144.183 -212.495)" fill="#707070"/>
      <path id="Path_43" data-name="Path 43" d="M282.61,226.3a1.058,1.058,0,1,0-1.057-1.058A1.058,1.058,0,0,0,282.61,226.3Z" transform="translate(-262.658 -212.937)" fill="#040000"/>
      <path id="Path_43_-_Outline" data-name="Path 43 - Outline" d="M282.168,225.916a1.116,1.116,0,1,1,1.117-1.116A1.108,1.108,0,0,1,282.168,225.916Zm0-2.116a1,1,0,1,0,.708.293A.993.993,0,0,0,282.168,223.8Z" transform="translate(-262.216 -212.495)" fill="#707070"/>
    </g>
  </g>
</svg>
