<svg xmlns="http://www.w3.org/2000/svg" width="29.898" height="29.898" viewBox="0 0 29.898 29.898">
  <g id="Icon-collaboration" transform="translate(-0.529 -0.529)">
    <path id="path2422" d="M9.99.529a.5.5,0,0,0-.492.5v1a.5.5,0,0,0,1,0v-1A.5.5,0,0,0,9.99.529ZM6.937,2.66l.713.717a.5.5,0,0,0,.707-.707L7.64,1.957a.5.5,0,1,0-.7.7Zm5.418-.7-.717.713a.5.5,0,1,0,.707.707l.713-.717a.5.5,0,1,0-.7-.7ZM2.023,4.516A1.492,1.492,0,0,0,.529,6.01v6.978a1.493,1.493,0,0,0,1.494,1.493H3.584a1.686,1.686,0,0,0-.064.5,1.992,1.992,0,1,0,3.983,0,1.694,1.694,0,0,0-.066-.5H9a1.471,1.471,0,0,0,1-.38,1.479,1.479,0,0,0,1,.38h6.974a1.492,1.492,0,0,0,1.5-1.493V11.426a1.689,1.689,0,0,0,.5.064,1.994,1.994,0,1,0,0-3.987,1.691,1.691,0,0,0-.5.067V6.01a1.493,1.493,0,0,0-1.5-1.494H15.592a.5.5,0,0,0-.371.831,1,1,0,1,1-1.482,0,.5.5,0,0,0-.368-.831H10.994a1.48,1.48,0,0,0-1,.38,1.482,1.482,0,0,0-1-.38Zm10.531,1a1.694,1.694,0,0,0-.067.5,1.994,1.994,0,0,0,3.988,0,1.72,1.72,0,0,0-.067-.5h1.56a.5.5,0,0,1,.5.5V8.386a.5.5,0,0,0,.831.372.992.992,0,0,1,.662-.258,1,1,0,1,1,0,1.994.989.989,0,0,1-.662-.254.5.5,0,0,0-.831.372v2.377a.5.5,0,0,1-.5.5H10.994a.5.5,0,0,1-.5-.5v-2.38a.5.5,0,0,0-.831-.368,1,1,0,1,1,0-1.482.5.5,0,0,0,.831-.372V6.01a.5.5,0,0,1,.5-.5Zm11.21,4.759-2.019,1.77a1.245,1.245,0,0,0-.172,1.669l-.418.453c-1.352,1.136-4,1.27-5.8,5.19l-.26.59c-.134.058-.552.241-1.181.484-.36.139-.744.279-1.071.38a3.351,3.351,0,0,1-.68.155h-.256a1.5,1.5,0,0,0-1.41-1H8a1.492,1.492,0,0,0-1.491,1.494V27.94A1.489,1.489,0,0,0,8,29.43h2.5a1.493,1.493,0,0,0,1.406-.993h.2l1.43.353a1.482,1.482,0,0,0,2.175.939,1.489,1.489,0,0,0,2.259.314,1.489,1.489,0,0,0,2.26-.315,1.486,1.486,0,0,0,2.139-.8h.583a1.494,1.494,0,0,0,1.305-2.226,1.493,1.493,0,0,0,.308-2.257,1.5,1.5,0,0,0,.192-1.731,1.507,1.507,0,0,0,.659-1.566l1.2-1.826a1.238,1.238,0,0,0,1.38-.164l2.018-1.769a1.248,1.248,0,0,0,.105-1.755l-4.6-5.239a1.253,1.253,0,0,0-.858-.428,1.226,1.226,0,0,0-.9.3Zm-1.535,4.2,3.649,4.157-1.06,1.617a1.49,1.49,0,0,0-.867-.278c-.973,0-1.916,0-2.854,0a1.585,1.585,0,0,0,.381-1,.5.5,0,1,0-1,0,.837.837,0,0,1-.316.541,2.372,2.372,0,0,1-.766.459h-.444a1.492,1.492,0,0,0-1.052.349,2.473,2.473,0,0,0-.442.585c-.407.6-1.147,1.641-1.147,1.641-.234.379-.535.5-.813.382a.568.568,0,0,1-.3-.75l1.063-2.413c1.65-3.585,4.016-3.543,5.547-4.845a.48.48,0,0,0,.048-.044Zm2.218,6.989a.493.493,0,0,1-.5.5c-.835,0-1.661,0-2.493,0a.5.5,0,1,0,0,1c.5,0,.5,0,2,0a.5.5,0,1,1,0,.993c-.668,0-1.327,0-2,0a.5.5,0,1,0,0,1h1.993a.5.5,0,0,1,.5.5.493.493,0,0,1-.5.5c-.828,0-1.7,0-2.5,0a1.493,1.493,0,0,0-.728.191,1.5,1.5,0,0,0-2.258-.312,1.5,1.5,0,0,0-1.729-.187,1.5,1.5,0,0,0-2.752.808v1.31l-1.26-.312H11.99V21.96h.173a3.646,3.646,0,0,0,.974-.2c.362-.112.76-.257,1.134-.4.092-.036.154-.063.242-.1l-.225.51a1.565,1.565,0,0,0,.814,2.063,1.625,1.625,0,0,0,2.041-.746c.024-.034.726-1.016,1.141-1.629a3.226,3.226,0,0,1,.283-.4c.044-.039.109-.1.386-.1,1.732,0,3.778,0,5,0a.492.492,0,0,1,.5.5ZM14.98,25.942a.5.5,0,0,1,.5.5v1.989a.5.5,0,1,1-.993,0V26.442A.5.5,0,0,1,14.98,25.942Zm1.993.5a.492.492,0,0,1,.5.5v2a.5.5,0,1,1-.993,0v-2A.492.492,0,0,1,16.973,26.44Zm1.991,0a.5.5,0,0,1,.5.5v2a.5.5,0,1,1-1,0v-2A.492.492,0,0,1,18.964,26.44Zm2,.5a.5.5,0,0,1,.492.5v1a.5.5,0,1,1-1,0v-1A.5.5,0,0,1,20.965,26.938Zm1.4,0c.232,0,.143,0,.582,0a.5.5,0,0,1,.5.5.488.488,0,0,1-.5.5h-.5v-.5a1.5,1.5,0,0,0-.086-.5Z" transform="translate(0 0)"/>
  </g>
</svg>
