<svg id="Icon-microsoftoutlook" xmlns="http://www.w3.org/2000/svg" width="27.025" height="25.078" viewBox="0 0 27.025 25.078">
  <path id="Icon_simple-microsoftoutlook" data-name="Icon simple-microsoftoutlook" d="M27.025,8.641v11.8a.866.866,0,0,1-.268.649.9.9,0,0,1-.653.259H16.48V13.511l1.8,1.384a.644.644,0,0,0,.427.142.7.7,0,0,0,.438-.143ZM16.48,6.365H26.1a.907.907,0,0,1,.611.216.8.8,0,0,1,.279.574l-8.3,6.617L16.48,12.028V6.365ZM15.093,1.3V26.374L0,23.766V3.976L15.1,1.3h0ZM10.534,13.885a5.236,5.236,0,0,0-.99-3.169,3.054,3.054,0,0,0-2.4-1.311A3.069,3.069,0,0,0,4.78,10.716a5.168,5.168,0,0,0-.98,3.169,5.138,5.138,0,0,0,1,3.143,3.119,3.119,0,0,0,2.366,1.324,3.106,3.106,0,0,0,2.415-1.317,5.168,5.168,0,0,0,1-3.15h-.041ZM7.021,11.09A1.507,1.507,0,0,1,8.24,11.9a3.7,3.7,0,0,1,.49,1.973,3.734,3.734,0,0,1-.49,1.994,1.465,1.465,0,0,1-1.234.793,1.443,1.443,0,0,1-1.233-.777,3.571,3.571,0,0,1-.49-1.975,3.476,3.476,0,0,1,.49-1.959,1.552,1.552,0,0,1,1.217-.812Z" transform="translate(0 -1.296)" fill="#fafdff"/>
</svg>
