<svg xmlns="http://www.w3.org/2000/svg" width="33.232" height="28.147" viewBox="0 0 33.232 28.147">
  <g id="Icon-time_management" data-name="Icon-time management" transform="translate(0 0.001)">
    <g id="Layer_1" data-name="Layer 1" transform="translate(0 -0.001)">
      <path id="Path_33" data-name="Path 33" d="M84.675,27.123H77.632v-5.43a.552.552,0,0,1,1.1,0v4.327h5.94a.552.552,0,0,1,0,1.1Z" transform="translate(-56.217 -15.309)"/>
      <path id="Path_34" data-name="Path 34" d="M54.642,21.847a.552.552,0,0,1-.194-1.069A10.162,10.162,0,1,0,41.023,8.821a.552.552,0,1,1-1.071-.265A11.266,11.266,0,1,1,54.835,21.812.551.551,0,0,1,54.642,21.847Z" transform="translate(-28.919 0.001)"/>
      <path id="Ellipse_17" data-name="Ellipse 17" d="M2.216-2A4.216,4.216,0,0,1,6.433,2.216,4.216,4.216,0,0,1,2.216,6.433,4.216,4.216,0,0,1-2,2.216,4.216,4.216,0,0,1,2.216-2Zm0,7.329A3.113,3.113,0,0,0,5.329,2.216,3.113,3.113,0,0,0,2.216-.9,3.113,3.113,0,0,0-.9,2.216,3.113,3.113,0,0,0,2.216,5.329Z" transform="translate(5.665 11.35)"/>
      <path id="Path_35" data-name="Path 35" d="M6.633,60.461h2.5a6.628,6.628,0,0,1,6.631,6.631v3.283a1.556,1.556,0,0,1-1.555,1.555H1.555A1.555,1.555,0,0,1,0,70.375V67.092a6.627,6.627,0,0,1,6.631-6.631Zm7.575,10.365a.452.452,0,0,0,.451-.451V67.092a5.523,5.523,0,0,0-5.528-5.528h-2.5A5.523,5.523,0,0,0,1.1,67.092v3.283a.451.451,0,0,0,.451.451Z" transform="translate(0 -43.782)"/>
      <path id="Ellipse_18" data-name="Ellipse 18" d="M1.442-2A3.442,3.442,0,0,1,4.884,1.442,3.442,3.442,0,0,1,1.442,4.884,3.442,3.442,0,0,1-2,1.442,3.442,3.442,0,0,1,1.442-2Zm0,5.781A2.339,2.339,0,1,0-.9,1.442,2.341,2.341,0,0,0,1.442,3.781Z" transform="translate(16.065 11.701)"/>
      <path id="Path_36" data-name="Path 36" d="M58.277,65.4H53.159a.552.552,0,0,1,0-1.1h5.117a.406.406,0,0,0,.4-.4V62.454a5.219,5.219,0,0,0-8.18-4.31.552.552,0,1,1-.626-.909,6.323,6.323,0,0,1,9.909,5.219v1.439a1.512,1.512,0,0,1-1.5,1.507Z" transform="translate(-35.941 -40.639)"/>
    </g>
  </g>
</svg>
