<svg id="Icon-linkedin" xmlns="http://www.w3.org/2000/svg" width="23.647" height="23.647" viewBox="0 0 23.647 23.647">
  <path id="Icon_awesome-linkedin" data-name="Icon awesome-linkedin" d="M21.958,2.25H1.684A1.7,1.7,0,0,0,0,3.955V24.192a1.7,1.7,0,0,0,1.684,1.7H21.958a1.7,1.7,0,0,0,1.689-1.7V3.955A1.7,1.7,0,0,0,21.958,2.25ZM7.147,22.519h-3.5V11.234h3.51V22.519ZM5.394,9.692A2.032,2.032,0,1,1,7.427,7.66,2.033,2.033,0,0,1,5.394,9.692Zm14.89,12.826h-3.5V17.029c0-1.309-.026-2.993-1.821-2.993-1.826,0-2.106,1.425-2.106,2.9v5.584h-3.5V11.234H12.71v1.541h.048a3.691,3.691,0,0,1,3.32-1.821c3.547,0,4.207,2.338,4.207,5.379Z" transform="translate(0 -2.25)" fill="#fafdff"/>
</svg>
