<svg id="Icon-self_learning" data-name="Icon-self learning" xmlns="http://www.w3.org/2000/svg" width="17.594" height="34.346" viewBox="0 0 17.594 34.346">
  <path id="Path_17" data-name="Path 17" d="M149.06,157.642a8.066,8.066,0,0,0-4.254-6.739c-.192-.1-.39-.2-.591-.288a8.068,8.068,0,0,0-11.263,6.918h0v.014c0,.156-.009.913-.009.913l-1.441,3.962a.58.58,0,0,0,.565.78h.869l-.007,4.557a1.654,1.654,0,0,0,1.6,1.661h3.012v4.054a1.163,1.163,0,0,0,1.174,1.175h7.38a1.125,1.125,0,0,0,1.128-1.175v-8.392a7.121,7.121,0,0,1,.879-3.307,8.028,8.028,0,0,0,.943-3.562c0-.064.01-.13.01-.2C149.061,157.892,149.066,157.766,149.06,157.642Zm-5.286.967h-5.836a2.634,2.634,0,1,1,.718-5.161,2.645,2.645,0,0,1,4.908-.088c.069-.005.139-.01.209-.01a2.629,2.629,0,1,1,0,5.259Z" transform="translate(-131.469 -140.304)"/>
  <path id="Path_18" data-name="Path 18" d="M320.342,89.312h.594v.547a.391.391,0,1,0,.777,0v-.547h.653a.46.46,0,0,0,0-.919h-.653v-.559a.391.391,0,1,0-.777,0v.559h-.594a.46.46,0,0,0,0,.919Z" transform="translate(-306.59 -82.172)"/>
  <path id="Path_19" data-name="Path 19" d="M182.494,15.688h.442v.575a.5.5,0,0,0,.989,0v-.575h.593a.46.46,0,0,0,0-.919h-.593v-.531a.5.5,0,0,0-.989,0v.531h-.442a.46.46,0,0,0,0,.919Z" transform="translate(-178.482 -13.776)"/>
  <rect id="Rectangle_85" data-name="Rectangle 85" width="1.908" height="1.908" transform="translate(5.09 14.631)"/>
  <path id="Path_20" data-name="Path 20" d="M248.75,221.573h2.386l-1.193-1.819Z" transform="translate(-240.463 -205.176)"/>
  <ellipse id="Ellipse_16" data-name="Ellipse 16" cx="1.002" cy="1.002" rx="1.002" ry="1.002" transform="translate(11.833 14.546)"/>
  <path id="Path_21" data-name="Path 21" d="M240.121,56.772a.372.372,0,0,0,.514,0l1.376-1.315a.313.313,0,0,0,.088-.37.339.339,0,0,0-.345-.2h-.941l0-2.852c0-.241-.2-.54-.437-.54h0c-.241.212-.437.3-.436.541l0,2.851H239a.333.333,0,0,0-.257.584Z" transform="translate(-231.057 -48.811)"/>
  <path id="Path_22" data-name="Path 22" d="M255.995,15.364a.49.49,0,0,0,.495-.437V13.889a.5.5,0,0,0-.989,0v1.037A.49.49,0,0,0,255.995,15.364Z" transform="translate(-246.736 -13.452)"/>
</svg>
