<svg id="Icon-srlf_motivated" data-name="Icon-srlf motivated" xmlns="http://www.w3.org/2000/svg" width="28.507" height="33.97" viewBox="0 0 28.507 33.97">
  <path id="Path_23" data-name="Path 23" d="M372.819,94.682a.433.433,0,1,0-.535.681,13.319,13.319,0,0,1,5.118,10.529.433.433,0,0,0,.866,0A14.18,14.18,0,0,0,372.819,94.682Z" transform="translate(-349.761 -88.889)"/>
  <path id="Path_24" data-name="Path 24" d="M53.549,105.89a13.319,13.319,0,0,1,5.118-10.529.433.433,0,1,0-.535-.681,14.18,14.18,0,0,0-5.449,11.209.433.433,0,1,0,.866,0Z" transform="translate(-52.683 -88.888)"/>
  <path id="Path_25" data-name="Path 25" d="M334.441,287.924a.433.433,0,0,0-.508.342,13.394,13.394,0,0,1-8.288,9.895l.117.879a14.261,14.261,0,0,0,9.021-10.608A.433.433,0,0,0,334.441,287.924Z" transform="translate(-306.541 -268.685)"/>
  <path id="Path_26" data-name="Path 26" d="M65.478,298.135a13.394,13.394,0,0,1-8.286-9.9.433.433,0,0,0-.85.166,14.261,14.261,0,0,0,9.019,10.61Z" transform="translate(-56.078 -268.66)"/>
  <path id="Path_27" data-name="Path 27" d="M243.1,446.8c-.313.023-.628.038-.947.038s-.635-.016-.949-.038l-.119.862c.353.027.709.042,1.067.042s.713-.015,1.066-.042Z" transform="translate(-227.897 -416.447)"/>
  <path id="Path_28" data-name="Path 28" d="M166.309,61.228a1.192,1.192,0,0,1,.8.8.208.208,0,0,0,.392,0,1.192,1.192,0,0,1,.8-.8.208.208,0,0,0,0-.392,1.192,1.192,0,0,1-.8-.8.208.208,0,0,0-.392,0,1.192,1.192,0,0,1-.8.8A.208.208,0,0,0,166.309,61.228Z" transform="translate(-158.228 -56.622)"/>
  <path id="Path_29" data-name="Path 29" d="M314.846,61.228a1.191,1.191,0,0,1,.8.8.208.208,0,0,0,.392,0,1.191,1.191,0,0,1,.8-.8.208.208,0,0,0,0-.392,1.191,1.191,0,0,1-.8-.8.208.208,0,0,0-.392,0,1.192,1.192,0,0,1-.8.8A.208.208,0,0,0,314.846,61.228Z" transform="translate(-296.369 -56.622)"/>
  <path id="Path_30" data-name="Path 30" d="M216.422,16.514a.238.238,0,0,1,.086.266l-.52,1.6a.238.238,0,0,0,.366.266l1.362-.989a.238.238,0,0,1,.28,0l1.362.989a.238.238,0,0,0,.366-.266l-.52-1.6a.238.238,0,0,1,.087-.266l1.362-1.042a.274.274,0,0,0-.14-.483h-1.683c-.1,0-.194-.014-.226-.112l-.52-1.575a.238.238,0,0,0-.452.013l-.52,1.555c-.032.1-.123.118-.226.118H215.2a.274.274,0,0,0-.14.483Z" transform="translate(-203.604 -13.145)"/>
  <path id="Path_31" data-name="Path 31" d="M221.827,127.446a2.6,2.6,0,1,0,2.6,2.6A2.6,2.6,0,0,0,221.827,127.446Zm1.115,2.866a1.13,1.13,0,0,1-2.229.011.236.236,0,0,1,.232-.276l1.763-.009a.235.235,0,0,1,.181.082A.237.237,0,0,1,222.942,130.312Z" transform="translate(-207.575 -119.446)"/>
  <path id="Path_32" data-name="Path 32" d="M167.663,225.511l-.079-.6-.007.006-.468-3.178.008-.008-.082-.6-.283-2.081a.083.083,0,0,1,.142-.071l1.088,1.088a.588.588,0,0,1,0,.831l-.093.093.467,3.177L170.3,222.4a2.7,2.7,0,0,0,0-3.813l0,0-1.463-1.455A5.566,5.566,0,0,0,164.9,215.5h-1.5a5.559,5.559,0,0,0-3.938,1.619L158,218.58h0a2.7,2.7,0,0,0,0,3.814l1.947,1.777L160.42,221l-.094-.094a.587.587,0,0,1,0-.831l1.088-1.088a.083.083,0,0,1,.142.071l-.366,2.679.008.008-.464,3.168-.009-.008-1.342,10.044a.324.324,0,0,0,.334.365h2.055a.322.322,0,0,0,.334-.273l1.113-8.071a1.013,1.013,0,0,1,.131-.375.944.944,0,0,1,1.606,0,1.069,1.069,0,0,1,.132.381l1.113,8.062a.323.323,0,0,0,.334.274h2.055a.324.324,0,0,0,.334-.364Zm-2.615-4.734-.858.6-.894-.6c-.026-.018-.058-.051-.05-.083l.721-3.084a.081.081,0,0,0-.018-.065l-.5-.669a.072.072,0,0,1,.061-.117H164.8a.073.073,0,0,1,.063.117l-.5.673a.073.073,0,0,0-.013.063l.73,3.083A.077.077,0,0,1,165.048,220.777Z" transform="translate(-149.901 -201.337)"/>
</svg>
