<svg xmlns="http://www.w3.org/2000/svg" width="74.881" height="23.194" viewBox="0 0 74.881 23.194">
  <g id="Group_91" data-name="Group 91" transform="translate(-48 -987)">
    <g id="Icon_ionic-logo-apple" data-name="Icon ionic-logo-apple" transform="translate(48 987)">
      <path id="Path_13" data-name="Path 13" d="M21.1,10.821c-2.029,0-2.886,1-4.3,1-1.449,0-2.554-.99-4.312-.99A5.858,5.858,0,0,0,7.764,13.75c-1.636,2.6-1.359,7.488,1.292,11.654.948,1.492,2.216,3.164,3.877,3.182h.03c1.443,0,1.872-.972,3.859-.984h.03c1.956,0,2.349.978,3.786.978h.03c1.661-.018,3-1.872,3.943-3.357a16.517,16.517,0,0,0,1.461-2.814,5.167,5.167,0,0,1-.658-9.233A5.678,5.678,0,0,0,21.1,10.821Z" transform="translate(-6.748 -5.392)"/>
      <path id="Path_14" data-name="Path 14" d="M22.177,4.5a5.281,5.281,0,0,0-3.442,1.908,4.8,4.8,0,0,0-1.123,3.671h.1a4.483,4.483,0,0,0,3.37-1.818,5.143,5.143,0,0,0,1.1-3.762Z" transform="translate(-8.275 -4.5)"/>
    </g>
    <path id="Icon_material-android" data-name="Icon material-android" d="M6.866,17.4a.969.969,0,0,0,.966.966H8.8v3.382a1.45,1.45,0,1,0,2.9,0V18.362h1.933v3.382a1.45,1.45,0,1,0,2.9,0V18.362H17.5a.969.969,0,0,0,.966-.966V7.731H6.866ZM4.45,7.731A1.448,1.448,0,0,0,3,9.181v6.765a1.45,1.45,0,1,0,2.9,0V9.181A1.448,1.448,0,0,0,4.45,7.731Zm16.429,0a1.448,1.448,0,0,0-1.45,1.45v6.765a1.45,1.45,0,1,0,2.9,0V9.181A1.448,1.448,0,0,0,20.879,7.731Zm-4.8-5.644L17.332.831a.478.478,0,0,0,0-.686.478.478,0,0,0-.686,0l-1.43,1.43A5.643,5.643,0,0,0,12.664.966a5.725,5.725,0,0,0-2.571.609L8.654.145a.478.478,0,0,0-.686,0,.478.478,0,0,0,0,.686L9.233,2.1A5.782,5.782,0,0,0,6.866,6.765h11.6A5.765,5.765,0,0,0,16.076,2.087ZM10.731,4.832H9.765V3.866h.966Zm4.832,0H14.6V3.866h.966Z" transform="translate(72 987)"/>
    <path id="Icon_awesome-html5" data-name="Icon awesome-html5" d="M0,2.25,1.807,22.742l8.108,2.7,8.159-2.7L19.881,2.25ZM15.956,8.872H6.441l.212,2.558h9.091l-.7,7.683-5.069,1.4v.016H9.914L4.8,19.112l-.311-3.924h2.47l.181,1.973,2.77.751,2.78-.751.311-3.22H4.364L3.7,6.4H16.184l-.228,2.47Z" transform="translate(103 984.75)"/>
  </g>
</svg>
