<svg xmlns="http://www.w3.org/2000/svg" width="183.058" height="23.194" viewBox="0 0 183.058 23.194">
  <g id="Group_89" data-name="Group 89" transform="translate(-48 -1035)">
    <path id="Icon_simple-javascript" data-name="Icon simple-javascript" d="M0,0H23.194V23.194H0ZM21.294,17.662c-.169-1.058-.858-1.947-2.9-2.777-.711-.333-1.5-.565-1.737-1.1a1.141,1.141,0,0,1-.044-.681,1.108,1.108,0,0,1,1.464-.638,1.572,1.572,0,0,1,.943.87c1-.653,1-.653,1.7-1.087a3.989,3.989,0,0,0-.566-.754,3.246,3.246,0,0,0-2.739-1l-.681.086a3.115,3.115,0,0,0-1.653.971,3.032,3.032,0,0,0,.55,4.321c1.319.986,3.248,1.2,3.495,2.131.232,1.131-.841,1.493-1.9,1.363a2.545,2.545,0,0,1-1.7-1.291l-1.769,1.016a3.908,3.908,0,0,0,.783,1.072c1.682,1.7,5.886,1.61,6.64-.97A3.271,3.271,0,0,0,21.25,17.6l.044.065Zm-8.681-7H10.44c0,1.873-.009,3.734-.009,5.61a9.15,9.15,0,0,1-.133,2.62c-.319.666-1.14.581-1.513.464a1.865,1.865,0,0,1-.8-.826.829.829,0,0,0-.123-.189L6.1,19.426a3.418,3.418,0,0,0,1.28,1.466,4.253,4.253,0,0,0,3.1.391,2.714,2.714,0,0,0,1.75-1.364,6.7,6.7,0,0,0,.384-3.234c.012-1.985,0-3.971,0-5.972l0-.054Z" transform="translate(48 1035)"/>
    <path id="Icon_simple-typescript" data-name="Icon simple-typescript" d="M0,11.6v11.6H23.194V0H0Zm18.692-.924a2.884,2.884,0,0,1,1.451.836,3.749,3.749,0,0,1,.556.744c.008.029-1,.705-1.612,1.085-.022.014-.111-.081-.21-.228a1.316,1.316,0,0,0-1.09-.655c-.7-.048-1.156.32-1.152.935a.85.85,0,0,0,.1.435c.155.32.443.512,1.343.9,1.661.715,2.372,1.186,2.813,1.856a3.367,3.367,0,0,1,.269,2.828,3.1,3.1,0,0,1-2.566,1.836,7.077,7.077,0,0,1-1.767-.017A4.265,4.265,0,0,1,14.465,20a4.085,4.085,0,0,1-.6-.894,1.528,1.528,0,0,1,.213-.136c.1-.059.494-.284.862-.5l.667-.387.14.207a3.116,3.116,0,0,0,.879.843,2.152,2.152,0,0,0,2.257-.114,1.006,1.006,0,0,0,.129-1.285c-.18-.257-.548-.474-1.594-.928a5.737,5.737,0,0,1-2.183-1.343,3.059,3.059,0,0,1-.637-1.16,4.665,4.665,0,0,1-.041-1.48,2.826,2.826,0,0,1,2.378-2.2,5.87,5.87,0,0,1,1.76.051Zm-5.445.968.008.95h-3.02v8.578H8.1V12.592H5.081V11.66a9.269,9.269,0,0,1,.025-.957c.012-.015,1.849-.023,4.075-.019l4.054.012Z" transform="translate(78 1035)"/>
    <path id="Icon_simple-clojure" data-name="Icon simple-clojure" d="M11.117,11.806c-.115.25-.243.531-.374.829A20.941,20.941,0,0,0,9.573,15.8a4.745,4.745,0,0,0-.108,1.059c0,.158.009.326.021.5a6.1,6.1,0,0,0,4.046.062,3.68,3.68,0,0,1-.4-.426c-.825-1.052-1.284-2.592-2.012-5.182M8.074,6.584A6.121,6.121,0,0,0,8,16.559c.377-1.568,1.32-3,2.735-5.88-.084-.231-.18-.483-.287-.749A9.361,9.361,0,0,0,8.99,7.289a4.129,4.129,0,0,0-.915-.7M16.938,18.63a9.982,9.982,0,0,1-2.069-.431A7.366,7.366,0,0,1,6.742,6.059,5.4,5.4,0,0,0,5.462,5.9C3.3,5.922,1.019,7.119.069,10.35A6.041,6.041,0,0,0,0,11.6a11.595,11.595,0,0,0,21.083,6.667,13.5,13.5,0,0,1-3.161.421,8.286,8.286,0,0,1-.985-.056M14.76,16.383a3.3,3.3,0,0,0,.459.158A6.141,6.141,0,0,0,17.732,11.6h0A6.124,6.124,0,0,0,9.673,5.778C10.918,7.2,11.517,9.225,12.1,11.443v0s.186.616.5,1.43a14.287,14.287,0,0,0,1.25,2.556,2.68,2.68,0,0,0,.913.95M11.6,0A11.578,11.578,0,0,0,2.173,4.845a5.884,5.884,0,0,1,3.19-.925,6.229,6.229,0,0,1,2.916.707c.123.071.24.147.354.225A7.367,7.367,0,0,1,16.774,16.84a9.115,9.115,0,0,0,1.048.059,5.726,5.726,0,0,0,3.713-1.158A4.9,4.9,0,0,0,23.1,13.077,11.583,11.583,0,0,0,11.6,0" transform="translate(175 1035)"/>
    <path id="Icon_simple-swift" data-name="Icon simple-swift" d="M23.87,18.3c.061-.122.061-.243.122-.365,1.461-5.724-2.01-12.421-7.977-15.953a14,14,0,0,1,2.74,11.508,5.988,5.988,0,0,1-.3.974,5.617,5.617,0,0,1-.489-.3A74.459,74.459,0,0,1,5.726,4.11a73.415,73.415,0,0,0,7.428,9.316A80.863,80.863,0,0,1,2.559,5.388,14.049,14.049,0,0,0,4.02,7.4,62.534,62.534,0,0,0,14.859,18.722c-3.105,1.889-7.429,2.01-11.813,0A17.491,17.491,0,0,1,0,16.9a17.984,17.984,0,0,0,8.1,6.881c4.079,1.767,8.219,1.645,11.2,0h.062a1.272,1.272,0,0,0,.365-.243c1.461-.731,4.324-1.522,5.907,1.522.426.852,1.217-3.105-1.765-6.759Z" transform="translate(204.998 1033.021)"/>
    <path id="_8666226_golang_icon" data-name="8666226_golang_icon" d="M37.8,133.961c-1.03.265-1.88.406-2.749.718-.69.18-1.389.368-2.192.576l-.057.009c-.4.113-.435.123-.8-.3a4.09,4.09,0,0,0-1.379-1.124,5.135,5.135,0,0,0-5.329.444,6.265,6.265,0,0,0-3,5.593,4.6,4.6,0,0,0,3.893,4.62,5.5,5.5,0,0,0,5.083-1.937c.2-.246.378-.5.576-.784h0c.076-.094.142-.2.217-.312H26.379c-.614,0-.765-.378-.557-.879.378-.916,1.087-2.447,1.5-3.212.085-.17.293-.548.652-.548h9.552a13.089,13.089,0,0,1,2.041-3.751,12.136,12.136,0,0,1,8.239-4.913,10.945,10.945,0,0,1,8.4,1.5,9.179,9.179,0,0,1,4.148,6.566,11.2,11.2,0,0,1-3.467,9.977,12.92,12.92,0,0,1-6.982,3.77c-.529.094-1.049.142-1.559.189-.274.019-.539.047-.8.076a11.029,11.029,0,0,1-7.181-2.589,9.274,9.274,0,0,1-2.938-4.582,9.018,9.018,0,0,1-1.323,1.994,11.9,11.9,0,0,1-8.3,5,10.422,10.422,0,0,1-7.927-1.937,9.257,9.257,0,0,1-3.732-6.538,11.449,11.449,0,0,1,2.494-8.626,13.076,13.076,0,0,1,8.248-5.092,9.783,9.783,0,0,1,7.8,1.446,9.209,9.209,0,0,1,3.411,4.148C38.274,133.725,38.151,133.876,37.8,133.961Zm-33.238.529c-.118,0-.147-.057-.089-.151l.619-.794a.428.428,0,0,1,.324-.142H15.929c.113,0,.142.085.085.17l-.5.765a.429.429,0,0,1-.293.18ZM.118,137.2c-.118,0-.147-.066-.088-.151l.618-.794a.436.436,0,0,1,.324-.151H14.4a.137.137,0,0,1,.142.18l-.236.709a.259.259,0,0,1-.265.18Zm7.036,2.532c-.059.085-.029.17.088.17l6.42.028a.222.222,0,0,0,.208-.2l.057-.709c0-.123-.057-.208-.18-.208H7.861a.378.378,0,0,0-.295.18Zm47.38-1.7a6.519,6.519,0,0,0-.066-.661,4.85,4.85,0,0,0-6.009-3.911,6.411,6.411,0,0,0-5.149,5.121,4.852,4.852,0,0,0,2.7,5.565,5.366,5.366,0,0,0,4.8-.18,6.547,6.547,0,0,0,3.741-5.622C54.544,138.231,54.544,138.128,54.534,138.033Z" transform="translate(108 907.387)"/>
  </g>
</svg>
