<svg id="Group_134" data-name="Group 134" xmlns="http://www.w3.org/2000/svg" width="85.339" height="45.735" viewBox="0 0 85.339 45.735">
  <g id="Group_133" data-name="Group 133" transform="translate(0 0)">
    <path id="Path_139" data-name="Path 139" d="M37.092,98.919q0-11.12-.012-22.24c0-.488.13-.588.6-.587q11.714.023,23.429,0c.471,0,.6.107.6.592q-.009,22.273.022,44.545c0,.479-.121.6-.6.6q-11.739-.023-23.478,0c-.443,0-.578-.1-.577-.567Q37.1,110.089,37.092,98.919Zm.663.05q0,10.824-.011,21.647c0,.462.133.569.578.568q11.071-.02,22.143,0c.466,0,.607-.1.606-.591q-.021-21.623,0-43.245c0-.486-.132-.6-.6-.594q-11.047.023-22.093,0c-.485,0-.634.1-.633.616Q37.771,88.17,37.755,98.969Z" transform="translate(-37.08 -76.092)"/>
    <path id="Path_140" data-name="Path 140" d="M716.9,329.809v2.5c0,.776-.008,1.552,0,2.328,0,.271-.081.383-.366.386s-.379-.106-.378-.378c.005-2.048,0-4.1,0-6.143,0-.163-.016-.354.224-.367s.473-.047.65.223c.661,1,1.348,1.992,2.023,2.987.371.548.369.549.726.019.654-.97,1.316-1.934,1.956-2.913a.617.617,0,0,1,.7-.314c.351.074.212.37.213.57.011,1.949.006,3.9.007,5.846,0,.234.031.461-.319.493-.378.035-.443-.149-.441-.466.008-1.321,0-2.642,0-3.963,0-.132,0-.264,0-.4,0-.095.023-.217-.079-.267-.155-.074-.2.089-.253.169-.575.824-1.142,1.654-1.712,2.481-.056.081-.123.156-.17.242-.19.346-.377.3-.578.009-.575-.843-1.155-1.684-1.728-2.528A1.661,1.661,0,0,0,716.9,329.809Z" transform="translate(-648.878 -303.149)"/>
    <path id="Path_141" data-name="Path 141" d="M756.336,235.585c0-1.006.01-2.012-.006-3.018-.005-.322.1-.438.425-.433,1.006.014,2.012-.012,3.018.011a2.1,2.1,0,0,1,2.031,1.7,1.927,1.927,0,0,1-1.346,2.2c-.342.131-.412.213-.158.521.493.6.95,1.22,1.407,1.844.122.166.427.288.24.57-.1.157-.746.053-.9-.141-.366-.465-.721-.94-1.08-1.41l-.061-.078c-.893-1.168-.9-1.167-2.354-1.074-.293.019-.423.131-.408.455.028.626,0,1.253.013,1.88.009.33-.133.433-.441.433s-.387-.157-.385-.435C756.342,237.6,756.336,236.591,756.336,235.585Zm2.264-2.706v0c-.362,0-.724.008-1.086,0-.237-.007-.367.056-.363.326.012.674.007,1.349,0,2.023,0,.2.075.306.288.3.724-.006,1.45.031,2.171-.019a1.407,1.407,0,0,0,1.375-1.4,1.33,1.33,0,0,0-1.45-1.231C759.226,232.868,758.913,232.879,758.6,232.879Z" transform="translate(-685.066 -216.673)"/>
    <path id="Path_142" data-name="Path 142" d="M667.505,237.993a3.375,3.375,0,0,1-3.435-3.583,3.49,3.49,0,1,1,6.978.034A3.42,3.42,0,0,1,667.505,237.993Zm.108-6.362a2.636,2.636,0,0,0-2.745,2.734,2.68,2.68,0,1,0,2.745-2.734Z" transform="translate(-601.946 -215.529)"/>
    <path id="Path_143" data-name="Path 143" d="M392.216,333.433c0-1.394,0-2.779,0-4.164,0-.248.008-.5,0-.743-.007-.278.16-.321.386-.32s.371.069.37.338q-.007,3.121,0,6.241c0,.157-.015.322-.208.337a.646.646,0,0,1-.6-.255c-.634-.821-1.281-1.632-1.924-2.446s-1.265-1.6-1.9-2.4c-.079-.1-.159-.25-.308-.2s-.1.227-.1.349q-.007,2.254,0,4.508c0,.263-.04.468-.361.454-.234-.01-.4-.077-.4-.376.008-2.064,0-4.128.006-6.192,0-.146-.008-.32.2-.342a.688.688,0,0,1,.714.212c.5.655,1.01,1.3,1.52,1.947q1.162,1.475,2.33,2.945A.261.261,0,0,0,392.216,333.433Z" transform="translate(-352.474 -303.227)"/>
    <path id="Path_144" data-name="Path 144" d="M518.18,235.536c0-.957-.007-1.914.006-2.87,0-.189-.13-.468.181-.541a.662.662,0,0,1,.746.238c.651.849,1.321,1.683,1.984,2.522.571.723,1.141,1.448,1.718,2.166.077.1.145.277.285.235.18-.054.111-.253.111-.39q.008-2.153,0-4.306c0-.261-.007-.494.375-.485.276.007.385.094.384.372-.005,2.046,0,4.092,0,6.137,0,.141.034.324-.166.363a.538.538,0,0,1-.607-.2c-.876-1.133-1.775-2.247-2.665-3.369-.389-.49-.769-.987-1.165-1.471-.086-.106-.167-.3-.329-.25s-.115.254-.115.394c0,1.485,0,2.97-.005,4.454,0,.206.051.448-.289.46-.288.01-.462-.036-.455-.4C518.193,237.582,518.18,236.558,518.18,235.536Z" transform="translate(-470.494 -216.639)"/>
    <path id="Path_145" data-name="Path 145" d="M466.058,334.258c-.514-.012-.536-.049-.33-.5q1.408-3.043,2.809-6.09c.111-.242.211-.413.527-.415s.426.181.534.415q1.421,3.092,2.845,6.183c.054.118.21.3-.021.366-.279.085-.609.154-.785-.178a11.676,11.676,0,0,1-.523-1.17.57.57,0,0,0-.615-.437c-.973.026-1.947.016-2.92,0a.482.482,0,0,0-.53.331c-.166.411-.366.809-.55,1.213C466.411,334.18,466.3,334.326,466.058,334.258Zm2.995-2.629c.363,0,.726-.008,1.089,0,.272.008.367-.069.239-.344-.388-.835-.763-1.676-1.148-2.512-.038-.083-.08-.2-.193-.193s-.144.125-.184.213c-.359.794-.7,1.595-1.077,2.38-.2.409-.041.482.333.459C468.425,331.614,468.739,331.629,469.053,331.629Z" transform="translate(-423.147 -302.371)"/>
    <path id="Path_146" data-name="Path 146" d="M632.7,334.229c-.257.043-.414-.108-.521-.37-.142-.35-.329-.682-.461-1.035a.547.547,0,0,0-.614-.416c-.956.027-1.913.02-2.87,0a.522.522,0,0,0-.591.387c-.144.4-.349.78-.513,1.174s-.493.307-.755.222c-.317-.1-.068-.353-.007-.487.922-2.018,1.863-4.027,2.8-6.04.115-.248.221-.442.566-.44s.39.237.491.453q1.407,3.016,2.812,6.032C633.246,334.158,633.189,334.256,632.7,334.229Zm-3.052-2.627c.379,0,.758,0,1.137,0,.236,0,.339-.055.219-.318-.39-.85-.762-1.708-1.148-2.559-.112-.247-.226-.249-.346.013-.3.657-.627,1.3-.921,1.963-.4.9-.391.9.615.9Z" transform="translate(-567.85 -302.345)"/>
    <path id="Path_147" data-name="Path 147" d="M435.326,238.258a.41.41,0,0,1-.5-.323c0-.015-.019-.028-.022-.044-.246-1.305-1.09-1.617-2.291-1.442a8.158,8.158,0,0,1-1.632,0,.568.568,0,0,0-.637.408c-.149.365-.338.714-.483,1.081a.491.491,0,0,1-.537.324c-.352,0-.448-.109-.292-.439q.676-1.427,1.335-2.862.766-1.657,1.525-3.318c.09-.2.171-.376.453-.372a.516.516,0,0,1,.545.318q1.438,3.114,2.894,6.219C435.863,238.2,435.7,238.285,435.326,238.258Zm-2.97-5.737-.14.009c-.426.938-.855,1.875-1.277,2.816-.091.2-.016.3.217.3.758-.006,1.516,0,2.274,0,.195,0,.3-.077.215-.265C433.222,234.426,432.787,233.474,432.356,232.521Z" transform="translate(-390.037 -215.901)"/>
    <path id="Path_148" data-name="Path 148" d="M808.256,334.258c-.238.036-.381-.108-.48-.351-.162-.4-.364-.774-.517-1.173a.4.4,0,0,0-.443-.293c-1.023.008-2.047.014-3.07,0a.5.5,0,0,0-.514.362,10.989,10.989,0,0,0-.5,1.126c-.14.458-.464.354-.756.3-.275-.048-.125-.277-.076-.4.17-.41.376-.8.563-1.207q1.166-2.5,2.328-5.012c.094-.2.187-.355.464-.357a.509.509,0,0,1,.514.366c.954,2.059,1.916,4.115,2.868,6.175C808.817,334.188,808.73,334.292,808.256,334.258Zm-2.988-2.628c.33,0,.661-.011.99,0s.461-.058.29-.417c-.38-.8-.73-1.617-1.093-2.427-.04-.089-.08-.218-.185-.2-.072.01-.152.115-.19.2-.386.836-.76,1.677-1.148,2.512-.135.289-.011.344.247.338C804.542,331.623,804.906,331.629,805.269,331.63Z" transform="translate(-726.043 -302.371)"/>
    <path id="Path_149" data-name="Path 149" d="M834.9,238.279a.484.484,0,0,1-.488-.3,4.508,4.508,0,0,1-.271-.58c-.174-.81-.657-1.055-1.457-.971a14.894,14.894,0,0,1-2.126.008c-.393-.015-.651.072-.788.478-.125.372-.328.717-.479,1.081-.177.426-.525.279-.8.212-.22-.053-.059-.251-.005-.368q.881-1.928,1.774-3.85c.359-.775.727-1.545,1.075-2.325.11-.246.221-.406.533-.407s.422.191.528.422c.948,2.06,1.891,4.122,2.852,6.176C835.437,238.265,835.174,238.252,834.9,238.279Zm-3.068-2.649c.363,0,.727-.009,1.089,0,.308.01.385-.089.251-.378-.388-.835-.763-1.675-1.142-2.514-.04-.089-.074-.206-.186-.19-.061.009-.126.1-.159.172q-.594,1.275-1.175,2.555c-.1.219-.079.372.233.356C831.1,235.615,831.467,235.63,831.83,235.63Z" transform="translate(-749.972 -215.884)"/>
    <path id="Path_150" data-name="Path 150" d="M555.158,331.184c0-.99,0-1.981,0-2.971,0-.283.033-.468.4-.46.342.008.363.188.362.444q-.007,1.51,0,3.021c0,.152-.082.372.117.436.149.048.249-.135.349-.238q1.6-1.645,3.2-3.295a1.476,1.476,0,0,1,.287-.27.8.8,0,0,1,.881-.022c.214.216-.179.386-.328.542-.685.715-1.381,1.421-2.1,2.106-.281.269-.264.441-.014.732.783.912,1.531,1.854,2.286,2.79.142.176.442.315.276.6-.1.177-.777.073-.948-.131-.423-.505-.839-1.016-1.253-1.528-.332-.409-.662-.819-.987-1.234-.18-.23-.345-.279-.543-.018a1.8,1.8,0,0,1-.349.35,2.046,2.046,0,0,0-.89,2.1c.042.257.055.55-.357.548s-.4-.289-.4-.579C555.16,333.132,555.158,332.158,555.158,331.184Z" transform="translate(-503.823 -302.776)"/>
    <path id="Path_151" data-name="Path 151" d="M363.36,238.2a3.739,3.739,0,0,1-2.531-.944c-.2-.171-.3-.286-.08-.5.178-.173.3-.392.6-.124a2.862,2.862,0,0,0,2.152.827,1.6,1.6,0,0,0,1.164-.448.978.978,0,0,0-.249-1.586,4.014,4.014,0,0,0-1.217-.392,4.62,4.62,0,0,1-1.175-.36,1.708,1.708,0,0,1-1.13-2.009,2,2,0,0,1,1.7-1.518,3.489,3.489,0,0,1,2.634.587c.179.136.47.228.207.566-.21.271-.371.351-.673.121a2.428,2.428,0,0,0-2.181-.476,1.135,1.135,0,0,0-.938,1.011,1.1,1.1,0,0,0,.853,1.03c.561.184,1.139.318,1.707.484,1.128.33,1.691,1.057,1.569,2.013a2.115,2.115,0,0,1-2.064,1.721C363.591,238.2,363.475,238.2,363.36,238.2Z" transform="translate(-328.565 -215.74)"/>
    <path id="Path_152" data-name="Path 152" d="M600.451,236.084c0,.874-.009,1.749,0,2.623,0,.309-.084.446-.418.444-.358,0-.344-.221-.344-.461q0-2.425,0-4.85c0-.851,0-.851-.826-.851-.4,0-.792-.006-1.188,0-.256,0-.349-.114-.349-.362s.09-.369.345-.369q2.374,0,4.748,0c.294,0,.3.18.3.393s-.062.344-.309.34c-.495-.008-.991.019-1.484-.007-.368-.02-.5.112-.49.478.018.874.006,1.749.006,2.623Z" transform="translate(-541.82 -216.784)"/>
    <path id="Path_153" data-name="Path 153" d="M78.493,117.8q0,10.129.01,20.258c0,.424-.086.554-.536.553q-9.708-.024-19.416,0c-.436,0-.547-.109-.547-.546q.018-20.258,0-40.516c0-.426.093-.554.541-.553q9.708.024,19.416,0c.438,0,.544.111.543.547Q78.481,107.669,78.493,117.8ZM68.269,99.726c-2.2,0-4.391-.011-6.586,0-1.1.008-.919-.231-.954.97-.01.348.142.41.441.4.627-.016,1.255.01,1.881-.01.334-.011.479.085.465.444-.024.61-.024,1.222,0,1.832.013.341-.088.456-.442.45-1.155-.021-2.311-.008-3.466-.008-.959,0-.943,0-.94.979,0,.334.115.425.428.423q2.674-.014,5.348,0c.352,0,.45-.124.444-.461-.017-1.04.009-2.08-.014-3.12-.009-.395.087-.552.518-.544,1.469.025,2.938.021,4.407,0,.385-.005.509.1.508.5q-.02,5.5,0,10.993c0,.366-.1.485-.475.48q-2.228-.028-4.457,0c-.393.005-.5-.119-.5-.506.018-1.931.008-3.863.008-5.794,0-.9,0-.884-.88-.9-.388-.008-.5.105-.5.5q.025,3.788,0,7.576c0,.4.1.531.516.527,2.377-.02,4.754-.024,7.131,0,.474.005.56-.149.558-.581-.015-4.077,0-8.154-.021-12.231,0-.474.147-.587.583-.561a16.782,16.782,0,0,0,1.732,0c.356-.016.441.116.437.453-.017,1.485-.014,2.971,0,4.457.006.928-.147.775.809.821.443.021.554-.122.549-.554-.022-2-.027-3.995,0-5.992.007-.482-.164-.563-.591-.56C72.891,99.735,70.58,99.726,68.269,99.726Zm-9.593,11.435v4.406c0,1,0,.989,1.013.964.313-.008.4-.124.388-.412-.015-.428.012-.859-.008-1.287-.014-.31.107-.395.4-.386.659.019,1.32-.009,1.98.012.327.011.421-.1.42-.423q-.016-3.861,0-7.722c0-.343-.1-.457-.447-.452q-1.658.028-3.316,0c-.35-.006-.445.106-.442.448C58.685,107.927,58.676,109.544,58.676,111.161Zm0,20.462v5.5c0,.815,0,.787.8.824.472.022.612-.113.609-.6-.021-3.368,0-6.736-.024-10.1,0-.514.147-.625.635-.616,1.683.031,3.368,0,5.052.02.375,0,.486-.112.476-.477-.022-.808,0-1.618-.009-2.427-.017-1.08.221-.969-1.014-.982-.274,0-.383.09-.375.372.015.577-.007,1.156.008,1.733.007.274-.081.384-.365.378q-.965-.021-1.932,0c-.28.006-.371-.1-.367-.375.013-.891,0-1.783,0-2.675,0-.928,0-.909-.913-.926-.407-.008-.547.111-.536.529.027,1.006,0,2.014.014,3.021,0,.32-.1.447-.425.427-.362-.023-.728.021-1.089-.011-.426-.038-.567.093-.561.544C58.691,127.726,58.676,129.675,58.676,131.623Zm19.163-26.609V98.526c0-.862,0-.835-.853-.87-.457-.019-.578.122-.575.575.02,2.889,0,5.778.022,8.667,0,.473-.148.592-.586.563a13.283,13.283,0,0,0-1.584,0c-.383.021-.512-.091-.505-.493.024-1.419.018-2.84.006-4.259-.009-1.113.188-.939-.961-.978-.388-.013-.464.129-.461.484q.023,3.1,0,6.191c0,.377.116.481.479.474,1.04-.02,2.08.011,3.12-.015.4-.01.5.13.49.509-.027.709-.008,1.419-.008,2.129,0,.895,0,.867.887.9.45.017.544-.13.54-.556C77.828,109.571,77.839,107.293,77.839,105.014Zm-10.6-7.347q-4.06,0-8.119,0c-.282,0-.452.017-.448.385.02,1.584.015,3.169,0,4.753,0,.287.1.364.372.36.957-.013,1.914,0,2.871,0,1,0,.987,0,.961-1.016-.008-.317-.132-.391-.415-.385-.627.013-1.255-.014-1.881.01-.374.014-.539-.083-.513-.492a11.255,11.255,0,0,0,0-1.583c-.038-.492.108-.64.622-.638,4.736.021,9.473.015,14.209.01,1.028,0,.848.133.894-.9.019-.432-.14-.51-.535-.508C72.582,97.675,69.908,97.667,67.235,97.667Zm10.6,27.862v-7.381c0-1.065,0-1.056-1.082-.989-.26.016-.344.109-.338.357.012.446-.009.892.006,1.337.009.26-.091.353-.345.346-.429-.011-.859.009-1.288,0-.283-.009-.372.1-.367.38.014.743.012,1.486,0,2.229,0,.258.094.355.347.348.379-.01.762.025,1.139-.008.423-.038.52.127.518.53q-.023,5.2-.006,10.4c0,.975-.164.834.864.872.423.016.566-.092.562-.544C77.828,130.78,77.839,128.155,77.839,125.529ZM71.656,122.9c0,1.122.007,2.245,0,3.367,0,.27.068.378.358.374,1.139-.014,2.278-.012,3.416,0,.263,0,.339-.09.337-.344-.011-1.056-.012-2.113,0-3.169,0-.287-.108-.377-.378-.369-.4.013-.793-.016-1.188.007-.34.02-.465-.095-.457-.446.02-.891-.005-1.783.012-2.673.007-.345-.115-.476-.459-.457a9.181,9.181,0,0,1-1.138,0c-.378-.026-.52.087-.509.494C71.675,120.757,71.656,121.831,71.656,122.9Zm.705,15.031c1.006,0,2.012-.008,3.018.005.287,0,.415-.061.407-.381-.019-.857-.018-1.715,0-2.572.006-.311-.112-.39-.4-.388q-3.043.014-6.086,0c-.339,0-.416.129-.41.437.016.824.022,1.65,0,2.473-.011.361.129.44.459.434C70.349,137.923,71.355,137.934,72.361,137.934Zm-6.144-4.274c0-1.172,0-2.343,0-3.515,0-.9.073-.758-.8-.8-.479-.026-.61.121-.6.6.027,2.013,0,4.026.02,6.039,0,.413-.071.6-.535.566a14.676,14.676,0,0,0-1.682,0c-.337.013-.471-.086-.454-.442.027-.543.007-1.089.007-1.633,0-1.046,0-1.033-1.026-1.009-.329.008-.423.127-.419.44.013,1.2.019,2.409,0,3.614-.007.367.135.432.462.429,1.518-.015,3.036-.018,4.554,0,.368,0,.487-.1.481-.471C66.2,136.2,66.217,134.93,66.217,133.66Zm1.99-4.95c2.361,0,4.721-.008,7.081.008.39,0,.55-.112.494-.5a.984.984,0,0,1,0-.3c.082-.5-.11-.633-.616-.631-4.506.021-9.013.012-13.519.012-.924,0-.905,0-.921.913-.007.387.107.505.5.5C63.552,128.7,65.88,128.71,68.207,128.71Zm.1-13.595c-2.245,0-4.49-.005-6.735,0-.962,0-.8-.143-.849.835-.02.448.109.583.572.581,4.523-.018,9.046-.011,13.569-.011.925,0,.907,0,.923-.912.007-.385-.1-.507-.5-.5C72.964,115.124,70.637,115.115,68.309,115.115Zm-.36,2.049c-.892,0-1.784.013-2.675-.007-.343-.008-.456.1-.451.448.018,1.222,0,2.444.01,3.666.01.987-.193.851.9.888.416.014.5-.159.493-.526-.018-.891.006-1.783-.011-2.675-.006-.325.1-.433.426-.426q1.263.025,2.526,0c.312-.006.44.078.428.417-.024.742-.02,1.486,0,2.229.023,1.11-.244.951,1,.978.325.007.422-.108.419-.431q-.024-2.08,0-4.161c0-.347-.133-.409-.436-.4C69.7,117.174,68.824,117.164,67.949,117.164Zm4.368,14.221c-1.005,0-2.011.006-3.016,0-.28,0-.425.062-.415.383.02.609.014,1.22,0,1.829,0,.254.089.35.345.35q3.09-.008,6.181,0c.28,0,.376-.105.37-.38-.014-.577-.021-1.154,0-1.73.014-.346-.11-.461-.453-.455C74.328,131.4,73.322,131.385,72.317,131.385Zm-8.129-10.517c0-1.106,0-2.211,0-3.316,0-.255-.045-.4-.349-.392-.924.015-1.848.012-2.772,0-.263,0-.34.1-.338.352.009.907.014,1.815,0,2.722-.006.313.117.4.407.386.428-.018.858.009,1.287-.008.307-.013.4.114.4.408-.013.874-.018,1.749,0,2.623.021,1.082-.239.91.982.941.308.008.4-.1.392-.4C64.18,123.079,64.188,121.974,64.188,120.868Zm7.138,8.483c-1.3,0-2.608.023-3.91-.012-.5-.013-.61.154-.594.618.033,1.005,0,2.013.013,3.019.013,1.072-.211.953,1.026.969.3,0,.4-.109.4-.406-.015-.775.017-1.552-.013-2.326-.016-.407.137-.5.515-.5,2.03.015,4.059.007,6.089.007.957,0,.941,0,.944-.936,0-.352-.114-.447-.454-.443C74,129.361,72.662,129.351,71.325,129.351Zm6.514-14.533v-.841c0-.922,0-.922-.906-.922-1.113,0-1.123,0-1.146-1.124-.006-.294-.084-.4-.392-.4-.891.018-1.782.019-2.673,0-.321-.007-.385.12-.378.405.016.709.019,1.419,0,2.128-.009.3.085.4.391.393.874-.019,1.749-.006,2.623-.006,1.064,0,1.064,0,1.064,1.044,0,1.122,0,1.114,1.1,1.032.232-.017.32-.092.315-.324C77.831,115.742,77.838,115.28,77.839,114.818ZM64.188,132.61c0-.956,0-1.911,0-2.867,0-.249-.035-.4-.344-.4-.923.015-1.845.011-2.768,0-.253,0-.35.083-.347.342q.015,1.384,0,2.768c0,.251.079.358.34.349.395-.014.793.023,1.186-.009.422-.035.6.088.567.543-.039.558-.018,1.12-.007,1.68.02,1-.207.884.926.908.342.007.458-.106.452-.452C64.175,134.521,64.188,133.565,64.188,132.61Zm3.366-27.383c.576,0,1.153-.007,1.729,0,.244,0,.36-.068.357-.334q-.015-1.408,0-2.816c0-.256-.094-.346-.347-.344-1.12.008-2.24.011-3.359,0-.315,0-.4.138-.393.418.008.906.01,1.812,0,2.717,0,.288.117.368.384.361C66.467,105.218,67.011,105.227,67.554,105.227Zm.072.643c-.577,0-1.153.007-1.73,0-.252,0-.356.094-.354.347q.01,1.137,0,2.274c0,.267.091.39.372.388q1.68-.011,3.361,0c.281,0,.372-.11.368-.382-.012-.758-.015-1.516,0-2.274.006-.295-.123-.362-.385-.356C68.714,105.878,68.17,105.869,67.626,105.87Zm-.033,3.666c-.56,0-1.121.011-1.681,0-.283-.008-.376.105-.372.377q.016,1.063,0,2.126c-.005.294.1.413.4.41q1.656-.016,3.313,0c.312,0,.393-.126.387-.414q-.022-1.063,0-2.126c.005-.274-.084-.382-.367-.374C68.715,109.547,68.154,109.536,67.593,109.535Zm-8.917,11.283v2.966c0,.8,0,.775.821.8.445.016.594-.107.588-.572-.025-1.961,0-3.922-.014-5.883-.007-1.113.2-.948-1.01-.976-.3-.007-.394.1-.39.4C58.685,118.643,58.676,119.731,58.676,120.819Zm8.155,3.869c0,.528.009,1.056,0,1.583-.007.274.091.383.373.373.461-.018.924-.019,1.385,0,.29.012.365-.1.362-.375-.011-1.039-.013-2.078,0-3.117,0-.313-.13-.4-.415-.391-.428.013-.858.018-1.286,0-.333-.015-.431.133-.421.443C66.843,123.7,66.831,124.193,66.832,124.688Zm0-4.035c0,.363.011.726,0,1.089-.011.292.1.423.4.412.445-.015.891-.012,1.336,0,.266.007.39-.076.384-.366q-.021-1.113,0-2.227c.005-.292-.129-.37-.39-.364-.445.01-.891.014-1.336,0-.311-.011-.4.134-.393.419C66.841,119.96,66.831,120.306,66.831,120.653ZM71,124.689c0-.329.007-.659,0-.988-.028-1.06.233-.913-.985-.943-.358-.009-.444.132-.437.462.018.807.006,1.614.006,2.421,0,1.088,0,1.08,1.116,1,.241-.016.308-.1.3-.326C70.995,125.776,71,125.232,71,124.689Zm2.7-6.152c.38,0,.76.009,1.139,0,1.09-.029.918.231.948-.977.007-.3-.089-.4-.394-.4-.924.016-1.849.005-2.773.005-1.005,0-1,0-.968,1,.007.273.081.382.365.373C72.575,118.524,73.137,118.536,73.7,118.537Zm-5.449,17.791c0-.461-.009-.921,0-1.382.007-.254-.083-.361-.342-.345s-.493.009-.74,0c-.219-.007-.34.069-.339.308,0,.9,0,1.809,0,2.714,0,.13-.005.3.176.3.391,0,.827.137,1.157-.062.215-.13.063-.52.08-.793C68.262,136.822,68.25,136.574,68.249,136.327Zm9.59-.042v-.743c0-.97,0-.953-.961-.949-.361,0-.45.141-.441.469.017.627,0,1.254,0,1.881,0,1.07,0,1.062,1.087.995.232-.014.32-.083.314-.317C77.83,137.177,77.838,136.731,77.839,136.286Zm-3.788-25.4h.789c.982,0,.969,0,.947-.97-.007-.31-.118-.392-.407-.385-.69.015-1.381,0-2.072,0-1.006,0-.994,0-.966,1,.008.29.109.364.377.354C73.162,110.873,73.607,110.885,74.051,110.885Z" transform="translate(-55.93 -94.922)"/>
  </g>
</svg>
