<svg id="Group_129" data-name="Group 129" xmlns="http://www.w3.org/2000/svg" width="52.289" height="45.112" viewBox="0 0 52.289 45.112">
  <g id="Group_127" data-name="Group 127" transform="translate(8.686 0)">
    <path id="Path_118" data-name="Path 118" d="M424.682,176.1a5.541,5.541,0,0,0,2.04-4.816c-.129-3.832-.039-7.671-.039-11.606H415.838a5.836,5.836,0,0,0-.1.771c-.007,1.883-.018,3.767.007,5.649a3.162,3.162,0,0,0,3.384,3.4c.217.005.434,0,.652,0,1.713.01,2.029.323,2.032,2.018,0,1.479,0,2.958,0,4.6-.972,0-1.862-.007-2.753,0a3.3,3.3,0,0,0-3.389,2.727,24.614,24.614,0,0,1-1.589,2.9c-1.293,2.8-3.611,2.941-6.3,2.477,0-.369,0-.757,0-1.146,0-8.4-.018-16.8.053-25.2a6.124,6.124,0,0,1,.893-2.677,27.41,27.41,0,0,1,1.887-2.646,2.537,2.537,0,0,1,2.22-1.116c5.177,0,10.354-.041,15.53.033a3.419,3.419,0,0,1,2.061.937,33.511,33.511,0,0,1,3.357,3.689,3.828,3.828,0,0,1,.834,2.114c.08,3.946.072,7.895.008,11.841a4.525,4.525,0,0,1-.682,2.088,16.144,16.144,0,0,1-2.03,2.806,3.329,3.329,0,0,1-1.868,1.108C428.377,176.206,426.675,176.1,424.682,176.1Z" transform="translate(-399.767 -151.423)"/>
    <path id="Path_119" data-name="Path 119" d="M348.569,151.76h3.8a3.051,3.051,0,0,1-3.086,3.8,1,1,0,0,1-.684-.663C348.523,153.9,348.569,152.892,348.569,151.76Z" transform="translate(-348.556 -151.714)"/>
  </g>
  <g id="Group_128" data-name="Group 128" transform="translate(0 38.005)">
    <path id="Path_120" data-name="Path 120" d="M454.011,439.765v-.175q0-2.839,0-5.679a.648.648,0,0,1,.3-.6c.206-.134.393-.3.6-.432a.6.6,0,0,1,.3-.1c.917-.011,1.833-.016,2.75-.01a.715.715,0,0,1,.353.118c.212.134.4.3.612.439a.613.613,0,0,1,.279.552q-.007,1.848-.01,3.7c0,.306.01.612-.005.917a.771.771,0,0,1-.108.357c-.141.225-.308.433-.462.65a.6.6,0,0,1-.53.265q-.436-.01-.872-.009-1.508,0-3.016.008Zm3.438-1.776V434.5h-1.694v3.492Z" transform="translate(-431.039 -432.665)"/>
    <path id="Path_121" data-name="Path 121" d="M408.417,436.142c0,.769,0,1.539,0,2.308a.672.672,0,0,1-.143.438c-.151.194-.3.394-.437.6a.559.559,0,0,1-.488.256l-3.062-.009a.541.541,0,0,1-.464-.243c-.16-.225-.334-.44-.486-.67a.582.582,0,0,1-.1-.3c-.006-1.568,0-3.137,0-4.705a.548.548,0,0,1,.242-.479c.217-.154.424-.323.647-.468a.653.653,0,0,1,.327-.107c.9-.012,1.8-.011,2.707-.017a.639.639,0,0,1,.41.139q.294.225.6.437a.554.554,0,0,1,.254.487C408.414,434.583,408.417,435.362,408.417,436.142Zm-1.752,1.821v-3.487h-1.686v3.487Z" transform="translate(-387.143 -432.64)"/>
    <path id="Path_122" data-name="Path 122" d="M355.917,437.815c.265.2.519.387.778.573a.51.51,0,0,1,.241.418c0,.235,0,.471,0,.715h-1.746v-.171c0-.478,0-.956,0-1.435,0-.113-.028-.159-.149-.153-.182.009-.365,0-.547,0a.556.556,0,0,1-.475-.251c-.164-.227-.334-.45-.514-.691l-.024.1-.02,0v-.2h-.029c0,.113,0,.225,0,.338,0,.417.011.835,0,1.252a.661.661,0,0,1-.108.326c-.148.227-.317.439-.477.659a.533.533,0,0,1-.407.24c-.245.013-.49,0-.754,0v-.165q0-2.855,0-5.709a.644.644,0,0,1,.294-.589c.2-.132.381-.281.568-.426a.613.613,0,0,1,.4-.135c.907,0,1.814,0,2.721.007a.716.716,0,0,1,.356.109c.233.147.451.318.674.481a.578.578,0,0,1,.246.5c0,1,0,1.992,0,2.988a.6.6,0,0,1-.11.3c-.134.207-.286.4-.427.6A.612.612,0,0,1,355.917,437.815Zm-2.46-1.8h1.713v-1.725h-1.713Z" transform="translate(-342.578 -432.449)"/>
    <path id="Path_123" data-name="Path 123" d="M300.209,437.8c.144-.19.27-.353.39-.52a.2.2,0,0,0,.027-.111q0-1.405,0-2.81a.393.393,0,0,0-.009-.054h-2.285v.5c0,.291,0,.582,0,.873a.643.643,0,0,0,.684.686c.089,0,.178,0,.266,0a.311.311,0,0,1,.34.328c.007.365,0,.729,0,1.12-.224,0-.443,0-.662,0a.582.582,0,0,0-.61.459,3.073,3.073,0,0,1-.695,1.13.485.485,0,0,1-.321.151c-.234.023-.471.007-.728.007v-.162q0-2.766,0-5.532a.762.762,0,0,1,.154-.481c.142-.189.279-.382.413-.577a.6.6,0,0,1,.537-.279q1.634,0,3.269,0a.586.586,0,0,1,.478.215c.232.269.475.527.718.787a.635.635,0,0,1,.176.456c0,.843.005,1.686-.007,2.529a.865.865,0,0,1-.133.41c-.129.214-.291.41-.437.614a.577.577,0,0,1-.514.265C300.913,437.79,300.565,437.8,300.209,437.8Z" transform="translate(-294.957 -432.451)"/>
    <path id="Path_124" data-name="Path 124" d="M535.777,434.442h-3.429v3.495h1.659v-1.708c.357.008.7-.081.994.2a4.223,4.223,0,0,0,.5.367.6.6,0,0,1,.275.525c0,.385.009.769,0,1.154a.645.645,0,0,1-.1.314c-.146.228-.314.442-.469.665a.569.569,0,0,1-.5.259q-1.517,0-3.033,0a.58.58,0,0,1-.512-.268c-.148-.215-.315-.418-.456-.637a.644.644,0,0,1-.109-.325c-.005-1.559,0-3.117,0-4.675a.583.583,0,0,1,.256-.5c.215-.157.425-.322.647-.468a.6.6,0,0,1,.3-.1c.907-.014,1.814-.022,2.721-.019a.733.733,0,0,1,.368.117c.228.145.439.317.659.476a.5.5,0,0,1,.227.4C535.783,433.942,535.777,434.184,535.777,434.442Z" transform="translate(-497.251 -432.615)"/>
    <path id="Path_125" data-name="Path 125" d="M634,435.483h1.17v-1.722h-1.725v1.729a6.986,6.986,0,0,1-.854-.011.612.612,0,0,1-.322-.235,7.733,7.733,0,0,1-.5-.678.566.566,0,0,1-.09-.289c-.007-.4.005-.8,0-1.2a.559.559,0,0,1,.253-.488c.213-.151.413-.322.634-.46a.773.773,0,0,1,.381-.122q1.353-.015,2.707,0a.739.739,0,0,1,.367.119c.228.145.439.317.659.476a.567.567,0,0,1,.246.493c0,1.563,0,3.126-.006,4.689a.648.648,0,0,1-.108.327c-.147.227-.314.442-.474.66a.544.544,0,0,1-.443.256c-.231,0-.462,0-.708,0,0-.053-.009-.1-.009-.147q0-.976-.006-1.952a1.416,1.416,0,0,0-1.124-1.406l-.055-.012Z" transform="translate(-584.638 -432)"/>
    <path id="Path_126" data-name="Path 126" d="M582.373,432.66v3.468h1.692v-3.469c.363-.008.715-.069,1.011.216a4.071,4.071,0,0,0,.5.369.516.516,0,0,1,.238.437c0,1.01,0,2.021-.016,3.032a.561.561,0,0,1-.106.284c-.157.233-.33.454-.494.682a.512.512,0,0,1-.446.216h-.666a5.027,5.027,0,0,1,0,.515.792.792,0,0,1-.106.328c-.133.213-.293.409-.434.616a.626.626,0,0,1-.573.3c-.2-.007-.4,0-.615,0,0-.142,0-.264,0-.387,0-.572-.019-1.144,0-1.716a1.391,1.391,0,0,0-1.162-1.377c-.178-.027-.361-.029-.551-.043,0-.041-.007-.084-.007-.127,0-.754,0-1.509,0-2.263a.58.58,0,0,1,.256-.5c.21-.155.415-.318.635-.459a.822.822,0,0,1,.341-.113A4.658,4.658,0,0,1,582.373,432.66Z" transform="translate(-540.508 -432.559)"/>
    <path id="Path_127" data-name="Path 127" d="M505.144,458.468h1.748c0,.052.006.1.006.148,0,.7.009,1.4,0,2.1a.769.769,0,0,1-.127.379c-.143.223-.317.427-.471.643a.538.538,0,0,1-.435.243c-.236.008-.472,0-.72,0Z" transform="translate(-475.248 -454.883)"/>
    <path id="Path_128" data-name="Path 128" d="M634.667,472.6c-.625,0-1.26,0-1.9,0a.569.569,0,0,1-.5-.263c-.143-.2-.285-.4-.438-.6a.632.632,0,0,1-.146-.451c.009-.147,0-.294,0-.453h1.765A1.493,1.493,0,0,0,634.667,472.6Z" transform="translate(-584.652 -465.581)"/>
    <path id="Path_129" data-name="Path 129" d="M505.1,434.727v-1.752h1.76c-.009.333.086.673-.185.964a5.386,5.386,0,0,0-.418.554.5.5,0,0,1-.393.231C505.609,434.734,505.359,434.727,505.1,434.727Z" transform="translate(-475.205 -432.843)"/>
    <path id="Path_130" data-name="Path 130" d="M285.248,432.542c.049.562-.313.934-.815.844v-.844Z" transform="translate(-284.433 -432.469)"/>
  </g>
</svg>
