<svg id="Group_131" data-name="Group 131" xmlns="http://www.w3.org/2000/svg" width="41.136" height="45.708" viewBox="0 0 41.136 45.708">
  <g id="Group_130" data-name="Group 130" transform="translate(0 0)">
    <path id="Path_131" data-name="Path 131" d="M398.653,207h1.828a12.876,12.876,0,0,1,1.8.706c4.923,2.816,9.845,5.636,14.736,8.508a5.972,5.972,0,0,1,3.072,5.3q.1,8.281-.006,16.564a6.335,6.335,0,0,1-3.513,5.75c-2.031,1.126-4.016,2.338-6.071,3.416-3.428,1.8-6.493,4.278-10.247,5.463H399.11a12.965,12.965,0,0,1-3.28-1.287c-4.434-2.59-8.866-5.184-13.329-7.723a6.412,6.412,0,0,1-3.471-5.88q-.06-8.047,0-16.094a5.776,5.776,0,0,1,2.822-5.3C387.422,213.23,392.776,209.646,398.653,207Zm-14.329,21.238h.012c0,1.941-.011,3.883.006,5.824a1.081,1.081,0,1,0,2.158.007c.013-.418.009-.837.021-1.256.031-1.026.007-2.058.122-3.075A1.421,1.421,0,0,1,388.1,228.4a1.612,1.612,0,0,1,1.661,1.144,4.317,4.317,0,0,1,.2,1.577c.009,1.028.006,2.056.039,3.083a.935.935,0,0,0,.912.989c.594.045,1.162-.237,1.186-.83.083-2,.431-4.047-.366-5.983a2.8,2.8,0,0,0-4.314-1.393c-.792.511-.9.191-.9-.5,0-1.256-.008-2.513-.005-3.769,0-.765-.183-1.427-1.1-1.388-.868.036-1.1.652-1.1,1.437C384.335,224.584,384.325,226.411,384.325,228.238Zm22.779,2.784a3.449,3.449,0,0,0,1.689,3.679,5.352,5.352,0,0,0,4.835.227c.558-.221,1.178-.628.814-1.381-.338-.7-.96-.417-1.5-.208a3.52,3.52,0,0,1-2.121.23,1.858,1.858,0,0,1-1.273-.883c-.437-.77-.2-1.237.677-1.273,1.026-.041,2.054-.015,3.08-.04,1.058-.026,1.477-.655,1.463-1.64a3.366,3.366,0,0,0-2.552-3.138A3.92,3.92,0,0,0,407.1,231.022Zm-5.244,4.295a1.211,1.211,0,0,0,1.269-.8q1.383-3.195,2.771-6.388a1,1,0,0,0-.514-1.512c-.761-.33-1.227.005-1.505.731-.49,1.279-.992,2.553-1.494,3.828-.1.243-.146.6-.427.627-.39.035-.418-.386-.522-.648-.523-1.307-1.014-2.627-1.536-3.934-.309-.772-.9-.864-1.591-.56s-.678.808-.41,1.418c.917,2.091,1.814,4.19,2.715,6.288C400.856,234.927,401.185,235.362,401.859,235.317Zm-5.533-4.4c0-1.023-.006-2.047,0-3.07.006-.739-.229-1.29-1.068-1.3-.82-.013-1.129.485-1.128,1.246q.005,3.07,0,6.14c0,.771.343,1.265,1.132,1.259.826-.006,1.068-.579,1.062-1.316C396.322,232.891,396.327,231.906,396.326,230.92Z" transform="translate(-378.999 -207)"/>
    <path id="Path_132" data-name="Path 132" d="M513.338,301.081c-.468-.2-1.4.445-1.552-.668-.1-.749.678-1.43,1.578-1.462a1.542,1.542,0,0,1,1.682,1.354C515.027,300.926,514.725,301.07,513.338,301.081Z" transform="translate(-481.432 -277.936)"/>
  </g>
  <ellipse id="Ellipse_19" data-name="Ellipse 19" cx="1.446" cy="1.446" rx="1.446" ry="1.446" transform="translate(14.864 15.365)" fill="#fff"/>
</svg>
