<svg id="Group_121" data-name="Group 121" xmlns="http://www.w3.org/2000/svg" width="263.667" height="69.386" viewBox="0 0 263.667 69.386">
  <path id="Path_60" data-name="Path 60" d="M1455.018,19.416l15.168-5.648L1455.018,7.96V.053L1481,10.542V17l-25.98,10.489Z" transform="translate(-1301.562 -0.053)"/>
  <path id="Path_61" data-name="Path 61" d="M10,317.159c-5.486,0-10-2.743-10-8.875v-.323c0-7.423,6.455-10,14.361-10h3.711V296.5c0-3.066-1.291-4.841-4.518-4.841-2.9,0-4.357,1.614-4.518,3.873H.968c.645-6.777,5.97-10,13.07-10,7.261,0,12.586,3.066,12.586,10.65v20.332H18.4v-3.55a9.965,9.965,0,0,1-8.391,4.2Zm8.068-10.65v-2.9H14.684c-4.2,0-6.293,1.13-6.293,3.873v.323c0,2.1,1.291,3.55,4.2,3.55,2.9-.161,5.486-1.775,5.486-4.841Zm27.754,10.65c-8.391,0-14.523-5.164-14.523-15.491v-.484c0-10.327,6.454-15.814,14.523-15.814,6.939,0,12.586,3.55,13.232,11.457H50.991c-.484-2.9-2.1-4.841-5-4.841-3.55,0-6.132,2.9-6.132,8.875v.968c0,6.132,2.259,8.875,6.132,8.875,2.9,0,5-2.1,5.486-5.486H59.22C58.736,312.318,54.057,317.159,45.827,317.159Zm31.627,0c-8.391,0-14.523-5.164-14.523-15.491v-.484c0-10.327,6.455-15.814,14.523-15.814,6.939,0,12.586,3.55,13.232,11.457H82.618c-.484-2.9-2.1-4.841-5-4.841-3.55,0-6.132,2.9-6.132,8.875v.968c0,6.132,2.259,8.875,6.132,8.875,2.9,0,5-2.1,5.486-5.486h7.745c-.484,7.1-5.164,11.941-13.393,11.941Zm31.789,0c-8.714,0-14.684-5.164-14.684-15.329v-.645c0-10.166,6.293-15.814,14.523-15.814,7.584,0,13.877,4.2,13.877,14.361v3.711H103.111c.323,5.486,2.743,7.584,6.293,7.584a5.457,5.457,0,0,0,5.648-3.873h7.907c-.968,5.648-5.809,10-13.716,10Zm-5.97-19.363h11.3c-.161-4.518-2.259-6.455-5.648-6.455-2.582.161-5,1.614-5.648,6.455Zm24.85-11.618h8.552V290.7c1.452-2.9,4.518-5.164,9.2-5.164,5.486,0,9.2,3.389,9.2,10.65v20.332h-8.552V297.473c0-3.55-1.452-5.164-4.518-5.164-2.9,0-5.325,1.775-5.325,5.648v18.557h-8.552Zm42.6-9.2v9.2h5.809v6.293h-5.809v14.361c0,2.259.968,3.389,3.066,3.389a7.255,7.255,0,0,0,2.9-.484v6.616a16.578,16.578,0,0,1-4.841.645c-6.616,0-9.682-3.066-9.682-9.2V292.471h-3.55v-6.293h3.55V280.53Zm37.759,39.534H200.09V312a9.377,9.377,0,0,1-8.875,5.164c-5.486,0-9.52-3.389-9.52-10.488V286.178h8.552v19.363c0,3.55,1.452,5.164,4.357,5.164s5.325-1.936,5.325-5.648V286.178h8.552Zm6.293-30.336h8.552v5.648c1.775-4.034,4.68-5.97,9.2-5.97v8.391c-5.809,0-9.2,1.775-9.2,6.777v15.652h-8.552Zm35.016,30.982c-8.714,0-14.684-5.164-14.684-15.329v-.645c0-10.166,6.293-15.814,14.523-15.814,7.584,0,13.877,4.2,13.877,14.361v3.711H243.82c.323,5.486,2.743,7.584,6.293,7.584a5.457,5.457,0,0,0,5.648-3.873h7.907c-1.291,5.648-5.971,10-13.877,10ZM243.658,297.8h11.457c-.161-4.518-2.259-6.455-5.648-6.455C246.885,291.5,244.465,292.955,243.658,297.8Z" transform="translate(0 -247.774)"/>
</svg>
