<svg id="uUY1an" xmlns="http://www.w3.org/2000/svg" width="87.167" height="45.735" viewBox="0 0 87.167 45.735">
  <g id="Group_126" data-name="Group 126" transform="translate(0 0)">
    <g id="Group_125" data-name="Group 125">
      <path id="Path_107" data-name="Path 107" d="M396.771,208.649c.276.11.231-.423.57-.3.048.739-.2,1.212-1.093,1.108.3.419,1.221.868-.108.964a.508.508,0,0,0-.416.642c.4-.137.023,1.018.735.439.164-.133.314.023.258.433a6.854,6.854,0,0,1-1.352,2.727,12.757,12.757,0,0,0-1.016,1.818,2.591,2.591,0,0,0,1.41-1.334,54.046,54.046,0,0,0,3.874-7.949,3.917,3.917,0,0,1,.686-1.3c.3.382.062.688-.03.952a39.651,39.651,0,0,1-12.627,18.372,59.334,59.334,0,0,1-7.009,4.614,4.517,4.517,0,0,1-2.705.817,2.507,2.507,0,0,0-.932.187c-6.437,2.126-12.736,2.083-18.947-.939a10.466,10.466,0,0,1-4.886-4.261,4.239,4.239,0,0,0-.931-1.021c-1.315-1.16-1.25-3-2.182-4.351a1,1,0,0,1-.194-.493c-.027-.709-1.062-1.205-.474-2.017.906-1.251,1.671-2.785,3.559-2.648.968.07,2.054-.048,2.475,1.371.243.818,1.288,1.179,2.036,1.653a25.471,25.471,0,0,0,7.325,3.624,17.077,17.077,0,0,0,10.948-1.21,40.958,40.958,0,0,0,13.645-9.639,1.911,1.911,0,0,1,.93-.692,3.274,3.274,0,0,0,2.3-2.014,38.4,38.4,0,0,1,4.1-6.566c.147-.175.156-.53.512-.419.283.089.213.361.173.546-.212.993.806,1.788.44,2.788-.089.243.105.851-.552.552-.1-.043-.17,0-.127.088C397.767,206.433,396.363,207.423,396.771,208.649Z" transform="translate(-331.327 -201.196)"/>
      <path id="Path_108" data-name="Path 108" d="M265.621,372.062c0-1.423.048-2.849-.019-4.269-.037-.795.447-.624.884-.653.465-.031.844-.049.8.634-.045.741-.256,1.734.122,2.173.484.563,1.27-.287,1.967-.392a3.856,3.856,0,1,1,1.309,7.6,4.047,4.047,0,0,1-2.7-.261.78.78,0,0,0-.994.044c-.783.541-1.405.108-1.4-.82.011-1.352,0-2.7,0-4.056Zm6.454,1.374c.013-1.655-.777-2.555-2.275-2.588-1.677-.037-2.572.877-2.592,2.648a2.333,2.333,0,0,0,2.455,2.593A2.377,2.377,0,0,0,272.074,373.436Z" transform="translate(-265.598 -331.621)"/>
      <path id="Path_109" data-name="Path 109" d="M480.072,382.39c0,.534-.008,1.069,0,1.6s-.1,1.118.73,1.138c.257.006.31.271.291.492a.487.487,0,0,1-.486.478,2.288,2.288,0,0,1-1.741-.3,1.032,1.032,0,0,0-1.324-.11,5.087,5.087,0,0,1-3.739.321,2.016,2.016,0,0,1-1.608-2,1.972,1.972,0,0,1,1.6-2,20.232,20.232,0,0,1,3.171-.385c.556-.085,1.32-.025,1.307-.919-.011-.824-.713-.947-1.288-1-1.068-.106-2.137-.149-2.736,1.095-.264.55-.934.4-1.334.2s-.219-.7-.029-1.045a2.509,2.509,0,0,1,.546-.649c1.2-1.048,4.763-1.05,5.979-.02a1.61,1.61,0,0,1,.651,1.387c-.032.568-.007,1.139-.007,1.709Zm-2.25.168a12.815,12.815,0,0,0-3.309.684c-.453.218-.845.558-.482,1.073a2.04,2.04,0,0,0,2.48.647c.933-.266,1.769-.592,1.809-1.761C478.337,382.71,478.184,382.433,477.821,382.558Z" transform="translate(-427.987 -340.579)"/>
      <path id="Path_110" data-name="Path 110" d="M313.4,382.424c0,.5-.006,1,0,1.495.008.525-.107,1.128.728,1.141.274,0,.328.222.312.458s-.075.433-.333.477c-.675.116-1.451.25-1.936-.246s-.806-.319-1.276-.1a4.987,4.987,0,0,1-3.63.339,1.983,1.983,0,0,1-1.695-1.8,1.94,1.94,0,0,1,1.592-2.206,9.38,9.38,0,0,1,2.316-.338,13.718,13.718,0,0,0,1.578-.22.726.726,0,0,0,.625-.752.746.746,0,0,0-.484-.751,2.78,2.78,0,0,0-3.562.8c-.42.579-1,.393-1.425.237-.4-.148-.091-.606.013-.932a1.774,1.774,0,0,1,1.185-1.138,6.967,6.967,0,0,1,4.505-.1,1.841,1.841,0,0,1,1.5,2.041c-.044.53-.008,1.067-.008,1.6Zm-2.5.165c-.738.086-1.478.164-2.215.264a3.186,3.186,0,0,0-.609.187.885.885,0,0,0-.7.837.993.993,0,0,0,.665.983,3.537,3.537,0,0,0,3.348-.761,1.35,1.35,0,0,0,.235-1.306C311.5,382.4,311.156,382.6,310.9,382.589Z" transform="translate(-297.011 -340.526)"/>
      <path id="Path_111" data-name="Path 111" d="M396.638,382.229c0,.606-.018,1.212.006,1.817.018.464.026.966.694,1,.364.016.343.294.343.543,0,.313-.194.416-.476.46a1.867,1.867,0,0,1-1.628-.255c-.553-.566-.945-.366-1.517-.1a4.684,4.684,0,0,1-4.031.091,1.819,1.819,0,0,1-1.225-1.817,1.934,1.934,0,0,1,1.329-1.871,7.275,7.275,0,0,1,2.19-.429c.6-.038,1.2-.139,1.8-.2.426-.044.8-.187.832-.662a.935.935,0,0,0-.679-.966,2.6,2.6,0,0,0-3.341.863,1.088,1.088,0,0,1-1.353.285c-.609-.192-.178-.68-.095-.988a1.952,1.952,0,0,1,1.5-1.234,6.991,6.991,0,0,1,4-.047c1.27.336,1.591.776,1.621,2.126.01.463,0,.926,0,1.39Zm-2.413.28c-.941.163-1.9.255-2.818.511-.861.24-1.111,1.008-.558,1.522a2.239,2.239,0,0,0,2.4.313c.777-.262,1.55-.546,1.686-1.54C395.013,382.747,394.932,382.38,394.226,382.509Z" transform="translate(-362.438 -340.516)"/>
      <path id="Path_112" data-name="Path 112" d="M432.9,382.272c0-.89-.015-1.781.008-2.67.008-.32-.15-.814.392-.831.392-.013.94-.356,1.158.33.2.644.578.089.695.009a4.221,4.221,0,0,1,3.293-.481,2.3,2.3,0,0,1,2.13,2.282c.085,1.456.04,2.919.075,4.378.016.678-.407.722-.912.727s-.912-.029-.891-.72c.037-1.21.029-2.422.018-3.632-.011-1.265-.453-1.79-1.543-1.881-1.361-.114-2.466.528-2.58,1.647a35.3,35.3,0,0,0-.1,3.623c0,.62-.078,1-.864.975-.737-.021-.906-.329-.883-.977.033-.925.008-1.852.008-2.778Z" transform="translate(-397.093 -340.564)"/>
      <path id="Path_113" data-name="Path 113" d="M349.524,382.242c0-.926-.009-1.853.005-2.778,0-.293-.138-.712.335-.768.422-.05,1-.335,1.232.185.254.574.429.221.693.091a4.555,4.555,0,0,1,2.254-.559c2.3.108,3.126.951,3.118,3.229,0,1.139-.046,2.28.022,3.415.04.677-.194.871-.83.905-.732.039-.909-.244-.877-.936.052-1.136.006-2.278-.009-3.416-.013-.948-.15-1.769-1.389-1.851-1.557-.1-2.439.327-2.743,1.581a12.444,12.444,0,0,0-.143,3.51c.034.743-.059,1.121-.927,1.121-.962,0-.76-.613-.76-1.163q0-1.283,0-2.565Z" transform="translate(-331.537 -340.487)"/>
      <path id="Path_114" data-name="Path 114" d="M640.151,383.128c-.855,0-1.711-.008-2.567,0-.906.01-1.037.257-.589,1.072a3.221,3.221,0,0,0,5.414.346c.253-.344.46-1.046.986-.665.422.306-.1.835-.3,1.172a4.126,4.126,0,0,1-4.636,1.379,3.378,3.378,0,0,1-2.573-3.51,3.293,3.293,0,0,1,1.973-3.535,4.533,4.533,0,0,1,4.64.419,4.162,4.162,0,0,1,1.306,2.815c.065.373-.28.507-.657.5-1-.015-2-.005-2.993-.005Zm-.447-.868v.007c.744,0,1.489-.03,2.231.008.941.048.928-.359.544-1.008a3.017,3.017,0,0,0-2.8-1.54,2.943,2.943,0,0,0-2.74,1.781c-.267.548-.222.774.431.757C638.145,382.244,638.925,382.259,639.7,382.259Z" transform="translate(-556.642 -340.91)"/>
      <path id="Path_115" data-name="Path 115" d="M602.192,370.923c0-1.086.009-2.038,0-2.991-.005-.367.055-.595.505-.6.513-.012.352.333.353.577,0,2.882.007,5.764-.011,8.645,0,.249.242.673-.354.683-.546.009-.514-.366-.507-.744-2.311,1.355-4.579,1.254-5.793-.221a4.136,4.136,0,0,1,.083-5.386C597.593,369.612,599.988,369.583,602.192,370.923Zm-2.794-.344a3.031,3.031,0,0,0-3.163,3.024,3,3,0,0,0,3.04,3.128,2.94,2.94,0,0,0,3.1-2.961A3.062,3.062,0,0,0,599.4,370.58Z" transform="translate(-524.846 -331.777)"/>
      <path id="Path_116" data-name="Path 116" d="M559.222,379.34a3.758,3.758,0,1,1,.429,7.5c-2.837.032-4.693-1.491-4.581-3.827A3.706,3.706,0,0,1,559.222,379.34Zm3.083,3.794A3.054,3.054,0,0,0,559.178,380a3.157,3.157,0,0,0-3.226,3.086,3.11,3.11,0,0,0,3.252,3.068A2.978,2.978,0,0,0,562.305,383.133Z" transform="translate(-493.123 -341.193)"/>
      <path id="Path_117" data-name="Path 117" d="M520.881,379.379a3.372,3.372,0,0,1,3.347,1.422c.234.334.56.818.094,1.118-.512.329-.6-.306-.8-.587a3.3,3.3,0,0,0-3.755-1.085,3.339,3.339,0,0,0-2.147,2.943,3.184,3.184,0,0,0,2.445,2.83,2.915,2.915,0,0,0,3.566-1.439c.19-.315.385-.651.8-.464.555.252.085.627-.016.869-.624,1.507-2.588,2.28-4.627,1.87a3.362,3.362,0,0,1-2.849-3.419c-.023-2.211.753-3.436,2.466-3.964A7.28,7.28,0,0,1,520.881,379.379Z" transform="translate(-463.155 -341.229)"/>
    </g>
  </g>
</svg>
