<svg id="Group_136" data-name="Group 136" xmlns="http://www.w3.org/2000/svg" width="180.848" height="15.456" viewBox="0 0 180.848 15.456">
  <g id="Group_135" data-name="Group 135" transform="translate(0 0)">
    <path id="Path_154" data-name="Path 154" d="M787.48,279.685c.808-2.266,1.615-4.391,2.314-6.552a1.8,1.8,0,0,1,2.016-1.525c2.975.085,2.688-.111,1.767,2.514-1.385,3.948-2.824,7.876-4.226,11.817a1.277,1.277,0,0,1-1.388.994c-.4-.022-.809-.011-1.213,0a1.3,1.3,0,0,1-1.438-1.044c-.82-2.474-1.74-4.914-2.627-7.365a2.983,2.983,0,0,0-.266-.436,10.255,10.255,0,0,0-1.353,3.169c-.608,1.575-1.188,3.162-1.715,4.765a1.209,1.209,0,0,1-1.3.915c-2.243.081-2.28.111-3.04-1.976-1.468-4.035-2.868-8.1-4.348-12.127-.338-.919-.11-1.212.814-1.2,3.461.049,2.66-.4,3.772,2.563.567,1.512,1.1,3.037,1.661,4.55.1.256.082.689.451.67.389-.021.412-.442.521-.754.711-2.045,1.459-4.077,2.143-6.131a1.2,1.2,0,0,1,1.3-.9c2.937-.085,2.943-.1,3.92,2.632.506,1.418.983,2.847,1.478,4.269A2.193,2.193,0,0,0,787.48,279.685Z" transform="translate(-613.361 -271.585)"/>
    <path id="Path_155" data-name="Path 155" d="M347.417,278.372c-1.556,2.214-3.119,4.422-4.664,6.643-1.2,1.719-1.176,1.72-2.353.03-1.45-2.082-2.917-4.154-4.381-6.227a3.206,3.206,0,0,0-.465-.362c0,.886,0,1.6,0,2.308,0,1.656-.022,3.311,0,4.967.014.844-.337,1.186-1.183,1.185-3.117,0-2.576.131-2.594-2.478-.027-3.826.021-7.653-.024-11.478-.012-1.018.345-1.433,1.344-1.314a2,2,0,0,0,.551,0,2.787,2.787,0,0,1,3.066,1.556c1.307,2.085,2.829,4.034,4.208,6.076.52.771.826.724,1.326-.012,1.425-2.1,2.956-4.129,4.341-6.254a2.618,2.618,0,0,1,2.6-1.39c2.367.12,2.262-.264,2.261,2.291,0,3.863-.025,7.726.014,11.589.011,1.038-.34,1.442-1.4,1.427-2.8-.039-2.365.083-2.387-2.368-.019-2.04,0-4.08,0-6.121Z" transform="translate(-271.485 -271.579)"/>
    <path id="Path_156" data-name="Path 156" d="M163.573,282.037c1.188,1.329,2.318,2.582,3.43,3.851.178.2.521.4.344.736-.161.3-.52.2-.8.23-.036,0-.074,0-.11,0-3.519.108-3.529.117-5.9-2.5-1.6-1.771-3.175-3.57-4.757-5.361-.161-.182-.463-.369-.27-.637.093-.129.4-.143.608-.144,2.427-.01,4.854,0,7.281-.01,1.322,0,1.692-.33,1.694-1.445,0-1.075-.326-1.37-1.624-1.375-2.831-.011-5.663.03-8.494-.022-1.025-.019-1.338.362-1.322,1.356.048,2.867.02,5.736.014,8.6,0,1.426-.1,1.53-1.476,1.536-2.615.011-2.3.152-2.308-2.315-.011-3.861.026-7.722-.021-11.583-.013-1.071.371-1.391,1.414-1.379,4.081.046,8.177.229,12.241-.036,4.91-.32,6.242,4.793,4.816,7.759a3.92,3.92,0,0,1-3.885,2.543,3.9,3.9,0,0,0-.55.025C163.826,281.873,163.768,281.929,163.573,282.037Z" transform="translate(-129.747 -271.525)"/>
    <path id="Path_157" data-name="Path 157" d="M250.324,271.811c1.469,0,2.94-.038,4.409.007a4.785,4.785,0,0,1,4.857,5.023c.006,1.764.015,3.527,0,5.291a4.649,4.649,0,0,1-4.389,4.774,54.428,54.428,0,0,1-9.789.009,4.575,4.575,0,0,1-4.537-4.526,28.888,28.888,0,0,1,.05-6.269,4.7,4.7,0,0,1,4.773-4.3C247.236,271.767,248.78,271.813,250.324,271.811Zm-.052,11.452h4.185a1.176,1.176,0,0,0,1.351-1.342q-.021-2.477,0-4.956c.01-.91-.4-1.37-1.317-1.369q-4.295,0-8.59,0a1.165,1.165,0,0,0-1.33,1.353c.02,1.578-.01,3.157.01,4.735.015,1.185.388,1.551,1.614,1.574C247.555,283.285,248.914,283.266,250.272,283.263Z" transform="translate(-200.555 -271.735)"/>
    <path id="Path_158" data-name="Path 158" d="M690.877,287.056a50.469,50.469,0,0,1-5.216-.166,4.521,4.521,0,0,1-4.075-4.556c-.02-1.947.1-3.9-.031-5.841a4.8,4.8,0,0,1,4.466-4.712c3.343-.029,6.688-.058,10.03.016a4.59,4.59,0,0,1,4.2,4.341c.034,2.131.028,4.262,0,6.393a4.45,4.45,0,0,1-3.921,4.341A45.765,45.765,0,0,1,690.877,287.056Zm.074-3.839c1.324,0,2.647.018,3.97-.005,1.172-.021,1.65-.512,1.668-1.7.02-1.323.008-2.647,0-3.97,0-1.546-.266-1.872-1.842-1.941s-3.161-.043-4.741-.026a24.064,24.064,0,0,0-3.523.1,1.285,1.285,0,0,0-1.248,1.489c.042,1.433,0,2.867.014,4.3.012,1.259.465,1.729,1.727,1.754C688.3,283.237,689.627,283.217,690.95,283.217Z" transform="translate(-544.039 -271.701)"/>
    <path id="Path_159" data-name="Path 159" d="M433.93,271.77h5.629c3.9,0,6.179,3.065,5.092,6.833a4.524,4.524,0,0,1-4.7,3.561c-2.98.036-5.961.04-8.94,0-.99-.015-1.43.292-1.346,1.326.065.8-.013,1.618.016,2.427s-.354,1.087-1.128,1.126c-2.665.136-2.664.154-2.664-2.457,0-3.826.024-7.653-.016-11.479-.01-.991.3-1.378,1.329-1.351C429.44,271.811,431.686,271.77,433.93,271.77Zm1.293,6.621c1.545,0,3.092-.02,4.637.007,1,.017,1.248-.556,1.248-1.41,0-.831-.168-1.447-1.2-1.441-3.054.02-6.109.03-9.163-.007-1.258-.015-1.024.834-1.074,1.586-.056.838.151,1.323,1.14,1.283C432.277,278.351,433.751,278.394,435.223,278.392Z" transform="translate(-344.816 -271.701)"/>
    <path id="Path_160" data-name="Path 160" d="M66.673,271.826c2.134,0,4.268.006,6.4,0a4.175,4.175,0,0,1,4.178,2.835,6.288,6.288,0,0,1,.154,4.327c-.66,2.133-2.247,3.2-4.726,3.233-2.907.035-5.815.046-8.721-.007-1.066-.019-1.487.365-1.385,1.412a7.893,7.893,0,0,1,0,1.434c-.055.634.318,1.523-.359,1.835a4.943,4.943,0,0,1-3.032.068c-.4-.08-.378-.5-.379-.83,0-4.452.005-8.9-.008-13.357,0-.828.469-.957,1.142-.952C62.184,271.834,64.428,271.826,66.673,271.826Zm1.553,6.619c1.509,0,3.018-.021,4.526.008,1.02.019,1.233-.619,1.259-1.429.028-.858-.281-1.422-1.26-1.418q-4.582.015-9.163,0c-1.181-.006-.978.831-1,1.546s.008,1.333,1.006,1.307C65.134,278.418,66.68,278.447,68.226,278.445Z" transform="translate(-58.797 -271.755)"/>
    <path id="Path_161" data-name="Path 161" d="M618.392,279.229c0,2.17-.021,4.34.01,6.51.011.792-.308,1.021-1.079,1.165-2.251.421-3.533-.857-4.807-2.383-1.789-2.142-3.672-4.206-5.523-6.3-.212-.239-.438-.66-.757-.55-.426.147-.233.641-.236.982-.018,2.28-.042,4.561,0,6.841.019.98-.316,1.381-1.331,1.392-2.655.03-2.655.065-2.655-2.6,0-3.789.021-7.577-.013-11.366-.009-.981.319-1.314,1.334-1.377a4.363,4.363,0,0,1,4.172,1.74c1.825,2.342,3.915,4.479,5.9,6.692.257.286.487.816.913.665.448-.159.246-.713.249-1.093.018-2.207.039-4.414,0-6.62-.017-.962.268-1.395,1.319-1.369,2.857.07,2.471-.218,2.5,2.48C618.407,275.771,618.394,277.5,618.392,279.229Z" transform="translate(-482.06 -271.53)"/>
    <path id="Path_162" data-name="Path 162" d="M525.669,271.8c2.464,0,4.928.027,7.391-.013.9-.015,1.25.3,1.231,1.213-.058,2.862.307,2.555-2.51,2.577-.993.008-1.987.04-2.978-.008-.921-.044-1.223.355-1.213,1.243.032,2.868.014,5.736.01,8.6,0,1.571-.065,1.63-1.593,1.643-2.184.019-2.184.019-2.184-2.115,0-2.721-.027-5.442.014-8.163.014-.916-.324-1.244-1.225-1.216-1.469.046-2.942-.012-4.412.016-.842.016-1.188-.331-1.184-1.178.011-3.092-.144-2.571,2.476-2.6C521.55,271.776,523.609,271.795,525.669,271.8Z" transform="translate(-415.837 -271.726)"/>
  </g>
</svg>
