<svg id="Group_124" data-name="Group 124" xmlns="http://www.w3.org/2000/svg" width="218.012" height="45.122" viewBox="0 0 218.012 45.122">
  <path id="Path_71" data-name="Path 71" d="M58.975,236.212c-.76,0-1.521-.009-2.281,0-.415.007-.62-.119-.621-.588,0-1.153.007-1.231,1.166-1.172a14.6,14.6,0,0,0,4.671-.5,29.848,29.848,0,0,0,4.082-1.547,15.694,15.694,0,0,0,5.363-4.035,21.572,21.572,0,0,0,2.349-3.155,18.277,18.277,0,0,0,2.622-11.344,18.882,18.882,0,0,0-1.323-5.4,20.462,20.462,0,0,0-2.694-4.6,19.727,19.727,0,0,0-5.967-5.008,1.576,1.576,0,0,0-.9-.315c-.211.038-.4.42-.523.685-.407.9-.781,1.816-1.162,2.729q-.79,1.892-1.571,3.789c-.355.865-.693,1.736-1.046,2.6-.5,1.217-1,2.431-1.5,3.647q-.564,1.373-1.123,2.748a12.755,12.755,0,0,1-.527,1.3.6.6,0,0,0,.288.9,4.812,4.812,0,0,1,2.378,5.268,4.7,4.7,0,0,1-2.807,3.6,4.949,4.949,0,0,1-3.385.308,4.657,4.657,0,0,1-3.341-2.829,5.09,5.09,0,0,1,4.943-7.082c.483.016.658-.128.753-.6.345-1.7.75-3.379,1.108-5.073.362-1.714.684-3.436,1.043-5.151.349-1.662.728-3.317,1.083-4.978.234-1.095.44-2.2.673-3.291.217-1.024.452-2.043.678-3.065.172-.776.348-1.551.509-2.329.081-.4.288-.57.691-.461.989.265,2,.476,2.96.816a18.44,18.44,0,0,1,3.113,1.341,38.335,38.335,0,0,1,4.086,2.718,18.573,18.573,0,0,1,3.8,4.059,24.063,24.063,0,0,1,2.557,4.615A22.628,22.628,0,0,1,80.786,215.2a22.384,22.384,0,0,1-2.056,8.023A22.975,22.975,0,0,1,65.19,235.236a22.223,22.223,0,0,1-2.682.627,14.863,14.863,0,0,1-1.742.323c-.592.056-1.193.012-1.791.012Z" transform="translate(-35.4 -191.094)"/>
  <path id="Path_72" data-name="Path 72" d="M-7.064,231.515a9.55,9.55,0,0,0-.628.858c-.276.485-.651.4-1.012.183a20.784,20.784,0,0,1-5.275-4.444,32.242,32.242,0,0,1-2.38-3.206,21.376,21.376,0,0,1-1.574-3.125c-.439-1.041-.748-2.137-1.114-3.209a.475.475,0,0,1-.033-.1,25.233,25.233,0,0,1-.562-3.389c.07-1.662-.033-3.332.061-4.992a12.162,12.162,0,0,1,.563-2.668,22.38,22.38,0,0,1,1.163-3.366,34.273,34.273,0,0,1,2.352-4.18,16.174,16.174,0,0,1,2.452-2.942A31.466,31.466,0,0,1-9.071,193.8a22.826,22.826,0,0,1,3.872-2,30.468,30.468,0,0,1,3.522-1.028c.26-.072.537-.083.8-.157.453-.129.782.036.795.495.043,1.572.059,3.146.072,4.719,0,.306-.09.555-.482.593a15.883,15.883,0,0,0-4.456,1.254,17.977,17.977,0,0,0-6.053,4.088,18.8,18.8,0,0,0-3.462,4.869,19.447,19.447,0,0,0-1.939,6.664,18.7,18.7,0,0,0,.086,3.886,16.081,16.081,0,0,0,.716,3.546,26.266,26.266,0,0,0,1.8,3.974,15.517,15.517,0,0,0,3.342,4.149c.806.717,1.687,1.35,2.537,2.018C-7.658,231.074-7.384,231.274-7.064,231.515Z" transform="translate(19.647 -190.567)"/>
  <path id="Path_73" data-name="Path 73" d="M220.449,265.38c1.194,0,2.388.006,3.583,0a4.019,4.019,0,0,1,3.7,2.4c1.177,2.175.88,4.422.209,6.682a13.33,13.33,0,0,1-2.79,5.132,7.5,7.5,0,0,1-4.1,2.665,5.9,5.9,0,0,1-1.122.157c-2.28.015-4.56.011-6.839.006-.82,0-.875-.088-.713-.888.363-1.786.7-3.578,1.081-5.36.346-1.623.754-3.233,1.1-4.856.361-1.693.691-3.394,1.017-5.094.127-.661.288-.836.965-.84C217.844,265.375,219.147,265.38,220.449,265.38Zm-1.985,13.938v.005c.09,0,.181-.006.271,0a4.526,4.526,0,0,0,4.361-2.262,10.427,10.427,0,0,0,1.457-3.634,5.75,5.75,0,0,0-.322-3.92,1.515,1.515,0,0,0-1.294-1.024c-1.211-.02-2.423-.016-3.634-.012a.626.626,0,0,0-.68.614c-.148.908-.33,1.81-.522,2.71-.187.881-.411,1.755-.6,2.635q-.471,2.14-.92,4.286c-.086.411.11.61.53.6C217.561,279.312,218.013,279.317,218.465,279.317Z" transform="translate(-161.918 -249.127)"/>
  <path id="Path_74" data-name="Path 74" d="M298.72,265.383c1.466,0,2.932.016,4.4,0,2.124-.029,3.36,1.676,3.21,3.745a5.772,5.772,0,0,1-2.779,4.7.407.407,0,0,0-.042.722,2.092,2.092,0,0,1,.734,2.134c-.174.96-.349,1.919-.5,2.883a.8.8,0,0,1-.856.777c-.81.056-1.618.163-2.422.283-.39.058-.573-.081-.537-.45.043-.429.145-.852.21-1.28.1-.677.222-1.353.279-2.034a.887.887,0,0,0-.825-1.024,7.261,7.261,0,0,0-1.076-.093c-1-.011-1.991,0-2.986,0-.51,0-.755.215-.844.762-.171,1.048-.445,2.079-.674,3.118a3.074,3.074,0,0,0-.129.691.921.921,0,0,1-.935,1.03c-.806.095-1.613.189-2.421.26-.434.038-.559-.149-.452-.6.275-1.159.491-2.331.744-3.495.214-.988.448-1.971.668-2.957.174-.774.352-1.546.509-2.324.343-1.7.668-3.4,1.014-5.1.094-.46.242-.908.358-1.363.094-.373.378-.382.681-.381q2.335,0,4.67,0Zm.54,3.084v-.005c-.724,0-1.448.016-2.171-.006a.683.683,0,0,0-.8.555c-.228,1.021-.46,2.042-.66,3.069-.073.374.132.571.528.569,1.284-.007,2.569,0,3.854-.009a3.035,3.035,0,0,0,2.726-2.767,1.155,1.155,0,0,0-1.249-1.4C300.744,268.449,300,268.467,299.26,268.467Z" transform="translate(-222.767 -249.127)"/>
  <path id="Path_75" data-name="Path 75" d="M372.521,279.708c-.533.043-1.1.1-1.672.134-.541.036-1.083.063-1.625.084-.524.02-.662-.187-.546-.7.227-1,.421-2.013.636-3.018.363-1.7.735-3.389,1.1-5.085.226-1.059.44-2.121.662-3.181.152-.724.294-1.451.475-2.167a.6.6,0,0,1,.362-.338,2.063,2.063,0,0,1,.644-.054q5.213,0,10.426,0a1.572,1.572,0,0,1,.588.053c.136.057.323.259.306.368-.111.693-.258,1.382-.422,2.065-.107.449-.409.6-.884.6-2.389-.021-4.779.006-7.168-.02-.564-.006-.863.116-.933.74-.08.715-.283,1.415-.424,2.123-.123.619-.028.738.619.74,1.991.007,3.982,0,5.973,0,1.009,0,1.451-.084,1.012,1.22a5.819,5.819,0,0,0-.142.91c-.124.753-.271.882-1.031.883q-3.177,0-6.353,0c-.844,0-.867-.005-1.07.789-.232.91-.441,1.827-.608,2.75A4.677,4.677,0,0,0,372.521,279.708Z" transform="translate(-284.293 -249.131)"/>
  <path id="Path_76" data-name="Path 76" d="M441.07,278.88a5.022,5.022,0,0,1,.267-.934c.738-1.339,1.5-2.664,2.253-4,.7-1.252,1.4-2.511,2.1-3.762.85-1.505,1.7-3.01,2.577-4.5a.73.73,0,0,1,.537-.269c1.1-.027,2.207-.015,3.31-.02.337,0,.474.168.514.494.309,2.528.619,5.056.949,7.581.178,1.358.385,2.712.6,4.064.07.428-.131.563-.49.59-.487.036-.974.063-1.461.089-2.921.151-5.842.3-8.762.455C442.721,278.712,441.974,278.8,441.07,278.88Zm8.341-8.78-2.82,5.328c-.171.324-.042.494.294.5,1.03.01,2.059,0,3.089,0,.344,0,.436-.189.386-.5-.069-.427-.143-.854-.2-1.283-.146-1.108-.274-2.219-.432-3.325A3.426,3.426,0,0,0,449.411,270.1Z" transform="translate(-340.989 -249.143)"/>
  <path id="Path_77" data-name="Path 77" d="M616.9,265.386q2.606,0,5.212,0c.892,0,.934.047.785.9-.09.516-.189,1.03-.3,1.541-.1.477-.4.651-.9.646-2.389-.024-4.778.005-7.166-.022-.567-.007-.868.129-.945.739-.09.714-.281,1.414-.412,2.123-.116.631-.026.739.619.742,1.973.006,3.945,0,5.918,0,.181,0,.362,0,.543,0,.677.027.767.177.591.85a9.931,9.931,0,0,0-.2,1.174c-.119.877-.24.987-1.15.987-2.117,0-4.235.015-6.352-.01a.809.809,0,0,0-.956.688c-.306,1.1-.347,1.088-1.5,1.16-.522.033-1.041.113-1.563.125-.628.015-.786-.156-.68-.793.163-.979.362-1.952.574-2.922.188-.863.434-1.713.619-2.576.212-.988.377-1.986.577-2.977.132-.654.293-1.3.436-1.955.1-.437.446-.424.77-.426,1.683-.007,3.366,0,5.049-.005Z" transform="translate(-471.98 -249.133)"/>
  <path id="Path_78" data-name="Path 78" d="M27.253,252.11c0,.09,0,.181,0,.272,0,.916-.083.992-1,1.131a10.31,10.31,0,0,0-3.881,1.571,8.558,8.558,0,0,0-2.6,2.335,21.425,21.425,0,0,0-1.644,2.833,9.253,9.253,0,0,0-.835,4.64,11.2,11.2,0,0,0,1.161,4.3,10.43,10.43,0,0,0,3.788,4.343c.06.039.141.078.164.137.218.552-.276.812-.52,1.152-.146.2-.32.506-.745.233a14.041,14.041,0,0,1-6.388-12.976,13.52,13.52,0,0,1,1.477-5.113,14.321,14.321,0,0,1,3.634-4.509,12.577,12.577,0,0,1,4.69-2.491,16.153,16.153,0,0,1,1.843-.416c.542-.083.7.106.729.663.036.631.1,1.261.144,1.891Z" transform="translate(-7.241 -236.726)"/>
  <path id="Path_79" data-name="Path 79" d="M89.82,275.681a8.781,8.781,0,0,1-.482,3.965,13.933,13.933,0,0,1-4.461,6.7,14.445,14.445,0,0,1-4.293,2.452,12.037,12.037,0,0,1-2.146.539,20.082,20.082,0,0,1-2.528.254c-.258.01-.711-.18-.752-.355a4.235,4.235,0,0,1-.007-1.421c.008-.071.379-.15.579-.142a9.282,9.282,0,0,0,3.715-.628,10.846,10.846,0,0,0,4.117-2.71,11.391,11.391,0,0,0,2.911-5.575,10.948,10.948,0,0,0-3.009-9.88c-.706-.685-.717-.683-.148-1.5.433-.621.871-1.24,1.332-1.84a.525.525,0,0,1,.874-.088,13.038,13.038,0,0,1,3.356,4.846A11.148,11.148,0,0,1,89.82,275.681Z" transform="translate(-54.514 -249.034)"/>
  <path id="Path_80" data-name="Path 80" d="M522.555,270.693c-.329,1.434-.664,2.865-.984,4.3-.174.776-.3,1.564-.5,2.33a.749.749,0,0,1-.526.427c-.823.1-1.653.149-2.482.176-.561.018-.678-.191-.565-.744.357-1.733.681-3.473,1.048-5.2.355-1.675.751-3.341,1.122-5.013a6.65,6.65,0,0,0,.143-.91.611.611,0,0,1,.661-.637c1.393-.013,2.786-.023,4.178.007a.759.759,0,0,1,.495.4,1.783,1.783,0,0,1,.146.736c.052,1.227.1,2.454.124,3.681.038,2.224.058,4.449.078,6.673.006.669-.048.708-.7.72-.452.008-.906,0-1.355.048s-.6-.133-.581-.549c.012-.271,0-.543,0-.814q-.038-2.576-.081-5.152a4.262,4.262,0,0,0-.057-.463Z" transform="translate(-400.781 -249.149)"/>
  <path id="Path_81" data-name="Path 81" d="M562.1,271.166c-.176.361-.369.714-.524,1.084-.489,1.159-.961,2.325-1.446,3.485a6.854,6.854,0,0,1-.568,1.218,1.211,1.211,0,0,1-.729.492,9.4,9.4,0,0,1-1.73.041c-.377-.016-.432-.3-.3-.591.63-1.353,1.287-2.694,1.912-4.05.5-1.094.97-2.206,1.467-3.3.578-1.277,1.162-2.552,1.775-3.812a.7.7,0,0,1,.53-.29c1.411-.027,2.822-.025,4.233-.019.368,0,.513.218.441.58-.2.991-.383,1.984-.589,2.974-.246,1.183-.509,2.363-.763,3.545-.3,1.412-.583,2.83-.927,4.232a.843.843,0,0,1-.615.476c-.864.069-1.734.065-2.6.061-.36,0-.492-.181-.4-.574.348-1.51.672-3.026.984-4.544a6.429,6.429,0,0,0,.054-.975Z" transform="translate(-431.533 -249.157)"/>
  <path id="Path_82" data-name="Path 82" d="M760.1,268.459c-.633,0-1.267.019-1.9-.006-.5-.019-.636-.22-.536-.71.111-.548.257-1.09.345-1.642a.752.752,0,0,1,.849-.716c.706,0,1.411,0,2.117,0q4.885,0,9.771,0a5.262,5.262,0,0,1,.649.031c.37.046.474.26.385.617-.135.542-.253,1.089-.362,1.637-.12.6-.325.79-.961.793-1.194.006-2.388.012-3.583,0a.565.565,0,0,0-.669.523c-.42,2.051-.875,4.095-1.3,6.145a.81.81,0,0,1-.889.75c-.777,0-1.554.064-2.33.057-.589,0-.632-.143-.481-.7.2-.729.336-1.474.495-2.213.293-1.359.594-2.716.867-4.078.088-.436-.29-.453-.566-.464-.632-.025-1.266-.008-1.9-.008Z" transform="translate(-588.783 -249.132)"/>
  <path id="Path_83" data-name="Path 83" d="M686.867,276.27c-1.57,0-1.556-.005-2.023-1.487-.3-.961-.643-1.91-1-2.853-.066-.173-.286-.288-.436-.429a2.056,2.056,0,0,0-.283.511q-.422,1.9-.8,3.811a.564.564,0,0,1-.626.527c-.759.009-1.516.062-2.275.072-.729.01-.831-.1-.692-.839.17-.9.385-1.8.575-2.7.25-1.183.486-2.369.744-3.55.262-1.2.53-2.4.835-3.584a.659.659,0,0,1,.482-.382,24.308,24.308,0,0,1,2.658.007.963.963,0,0,1,.7.48c.522,1.3.97,2.636,1.462,3.951.479,1.281.984,2.551,1.471,3.829.244.639.505,1.276.695,1.932.154.531,0,.688-.556.7C687.482,276.277,687.175,276.27,686.867,276.27Z" transform="translate(-526.981 -249.092)"/>
  <path id="Path_84" data-name="Path 84" d="M902.851,271.518c-.048.262-.093.524-.144.786-.164.832-.3,1.672-.519,2.487a.877.877,0,0,1-.618.487,22.808,22.808,0,0,1-2.427.165c-.589.014-.69-.206-.562-.8.371-1.711.7-3.429,1.068-5.141.267-1.251.548-2.5.858-3.742a.609.609,0,0,1,.453-.349c1.429-.028,2.858-.015,4.287-.019a.461.461,0,0,1,.516.494c.014.2.042.4.048.595.063,2.055.117,4.111.186,6.166.022.649.084,1.3.121,1.945a.6.6,0,0,1-.634.706c-.488.018-.977.012-1.465,0-.39-.006-.532-.267-.556-.606-.061-.862-.1-1.727-.172-2.588a3.16,3.16,0,0,0-.207-.665Z" transform="translate(-699.078 -249.14)"/>
  <path id="Path_85" data-name="Path 85" d="M944.731,270.933c-.341.765-.689,1.528-1.023,2.3-.2.462-.346.951-.585,1.391a.96.96,0,0,1-.593.484,11.88,11.88,0,0,1-1.84,0c-.337-.019-.457-.163-.273-.544.547-1.132,1.035-2.294,1.56-3.437.623-1.357,1.259-2.707,1.891-4.06.191-.408.418-.8.578-1.221a.688.688,0,0,1,.753-.474c1.357.007,2.713.012,4.07-.006.444-.006.6.184.518.591-.182.876-.378,1.749-.573,2.623-.235,1.056-.484,2.109-.708,3.167-.191.9-.354,1.807-.535,2.709a.749.749,0,0,1-.779.686c-.8,0-1.593.02-2.387-.011-.583-.023-.663-.211-.518-.775.234-.907.439-1.822.631-2.739a2.723,2.723,0,0,0-.024-.667Z" transform="translate(-731.797 -249.114)"/>
  <path id="Path_86" data-name="Path 86" d="M825.521,324.792a5.952,5.952,0,0,1-4.322-1.41,4.464,4.464,0,0,1-1.508-3.52c0-.61.28-.82.89-.845.756-.031,1.511-.075,2.267-.107a.512.512,0,0,1,.609.527,2.379,2.379,0,0,0,3,2.151,10.462,10.462,0,0,0,1.977-.663,2.221,2.221,0,0,0,1.2-1.528.636.636,0,0,1,.674-.51c.8-.012,1.591-.023,2.386,0,.467.013.625.258.536.722a5.64,5.64,0,0,1-2.359,3.437A9.29,9.29,0,0,1,825.521,324.792Z" transform="translate(-637.363 -291.003)"/>
  <path id="Path_87" data-name="Path 87" d="M609.168,328.479c-1.844,0-3.689.006-5.534,0-.773,0-.889-.226-.678-.976.229-.815.4-1.646.577-2.474a.758.758,0,0,1,.876-.672c.7,0,1.4-.071,2.105-.13.411-.034.685.07.668.541-.018.5.239.628.709.624,2.405-.019,4.81-.009,7.216-.008a3.686,3.686,0,0,1,.595.026c.334.055.5.2.392.6-.14.5-.184,1.031-.3,1.539-.19.8-.378.934-1.2.934h-5.425Z" transform="translate(-467.636 -295.186)"/>
  <path id="Path_88" data-name="Path 88" d="M728.171,276.16c-.362,0-.725.013-1.086,0-.5-.023-.67-.227-.577-.751q.3-1.68.644-3.351c.2-.937.439-1.863.636-2.8.212-1.008.4-2.02.588-3.033.122-.656.318-.842.972-.848.724-.007,1.448-.011,2.172,0,.643.014.716.15.583.763-.4,1.852-.782,3.708-1.178,5.562-.283,1.325-.556,2.652-.889,3.965a.892.892,0,0,1-.62.464,6.789,6.789,0,0,1-1.245.021Z" transform="translate(-564.403 -249.12)"/>
  <path id="Path_89" data-name="Path 89" d="M826.342,265.4c.434,0,.87-.022,1.3.006.362.024.527.184.434.615-.382,1.764-.717,3.538-1.084,5.306-.26,1.254-.52,2.509-.836,3.749a.85.85,0,0,1-.594.488c-.8.106-1.615.139-2.425.173-.462.02-.665-.239-.571-.687.446-2.121.9-4.241,1.347-6.362.19-.9.387-1.8.537-2.708a.585.585,0,0,1,.64-.579C825.509,265.392,825.925,265.4,826.342,265.4Z" transform="translate(-639.598 -249.134)"/>
  <path id="Path_90" data-name="Path 90" d="M869.625,275.474c-.434,0-.868.012-1.3,0-.375-.013-.5-.231-.423-.587.358-1.583.722-3.165,1.073-4.749.308-1.391.617-2.782.894-4.179a.627.627,0,0,1,.736-.6c.759.021,1.52.015,2.279,0,.46-.007.7.164.594.65-.241,1.122-.487,2.244-.732,3.366-.169.776-.349,1.549-.505,2.328q-.289,1.433-.545,2.873c-.106.593-.32.8-.933.842-.307.021-.613.044-.92.064-.072,0-.145,0-.217,0Z" transform="translate(-675.082 -249.111)"/>
  <path id="Path_91" data-name="Path 91" d="M924.284,318.537c.153-.385.536-.447.982-.418.378.025.759,0,1.139.007.566.01.741.289.519.8-.568,1.3-1.136,2.605-1.694,3.912-.321.753-.474.866-1.29.867-.669,0-1.339-.014-2.007,0-.4.011-.645-.158-.648-.55q-.018-2.25.006-4.5c0-.365.219-.549.6-.533a9.685,9.685,0,0,1,1.191.018A8.1,8.1,0,0,1,924.284,318.537Z" transform="translate(-716.882 -290.405)"/>
  <path id="Path_92" data-name="Path 92" d="M716.081,325.894h-.054c-2.162.021-1.585.017-2.359-1.8-.29-.679-.5-1.39-.786-2.073-.3-.721-.158-.956.614-.976,1.535-.038,3.069-.1,4.6-.135.685-.015.83.23.667.911-.264,1.1-.521,2.212-.73,3.328-.093.5-.308.747-.815.739-.38-.006-.76,0-1.14,0Z" transform="translate(-553.641 -292.597)"/>
  <path id="Path_93" data-name="Path 93" d="M372.524,336.5c-1.915,0-3.831,0-5.746-.005-.279,0-.615,0-.613-.429a.691.691,0,0,1,.578-.741.678.678,0,0,1,.108-.012c1.53-.1,3.06-.2,4.59-.308,1.941-.136,3.882-.281,5.822-.421.485-.035.972-.06,1.457-.107.312-.03.453.119.433.4a5.809,5.809,0,0,1-.145.961.809.809,0,0,1-.9.677c-1.861-.019-3.722-.008-5.584-.008Z" transform="translate(-282.355 -303.213)"/>
  <path id="Path_94" data-name="Path 94" d="M893.38,323.738c-.4,0-.8-.012-1.193,0s-.56-.189-.531-.564a4.87,4.87,0,0,1,.092-.643c.254-1.18.52-2.357.769-3.538.125-.587.365-.822.952-.83.741-.01,1.483-.015,2.224.01.541.018.624.168.518.684-.24,1.166-.488,2.33-.7,3.5-.218,1.225-.372,1.377-1.591,1.377h-.542Z" transform="translate(-693.692 -290.442)"/>
  <path id="Path_95" data-name="Path 95" d="M953.324,324.3c-.416,0-.832-.007-1.247,0a.464.464,0,0,1-.535-.527,1.974,1.974,0,0,1,.036-.431c.29-1.339.57-2.681.9-4.011a.715.715,0,0,1,.514-.423c.829-.049,1.662-.03,2.493-.028.431,0,.582.26.51.646-.2,1.063-.412,2.123-.625,3.183-.071.353-.173.7-.239,1.056a.564.564,0,0,1-.667.539c-.378-.024-.759-.005-1.139-.005Z" transform="translate(-740.573 -291.006)"/>
  <path id="Path_96" data-name="Path 96" d="M770.312,319.924c.452,0,.9-.009,1.355,0,.358.01.5.146.4.555q-.422,1.788-.76,3.594c-.155.828-.357,1.031-1.217,1.031-.651,0-1.3.01-1.951-.01-.582-.019-.723-.2-.609-.743.271-1.305.562-2.606.829-3.912a.606.606,0,0,1,.649-.526c.433-.015.867,0,1.3,0Z" transform="translate(-596.508 -291.811)"/>
  <path id="Path_97" data-name="Path 97" d="M674.584,326.727c-.344,0-.687,0-1.03,0-.61-.007-.756-.132-.649-.746.157-.9.383-1.8.583-2.693.019-.087.071-.168.088-.256.223-1.183.251-.986,1.373-1.009.578-.011,1.157-.012,1.734-.043.434-.023.677.111.584.585-.221,1.132-.443,2.264-.676,3.394a.868.868,0,0,1-1.086.777A7.032,7.032,0,0,0,674.584,326.727Z" transform="translate(-522.438 -293.431)"/>
  <path id="Path_98" data-name="Path 98" d="M544.1,330.59c-.379,0-.759-.021-1.136.006-.476.033-.655-.2-.655-.637q0-1.164,0-2.327c0-.3.108-.475.435-.494,1.239-.07,2.476-.167,3.716-.221.777-.034.921.166.641.9a18.757,18.757,0,0,1-.994,2.265,1.3,1.3,0,0,1-.818.486A5.69,5.69,0,0,1,544.1,330.59Z" transform="translate(-420.238 -297.295)"/>
  <path id="Path_99" data-name="Path 99" d="M574.2,329.862c-.379,0-.758-.012-1.136,0-.4.017-.609-.189-.543-.552.172-.954.368-1.906.615-2.844a.762.762,0,0,1,.569-.4c.879-.065,1.763-.067,2.646-.086.374-.008.532.174.443.548-.208.875-.425,1.748-.618,2.626a.776.776,0,0,1-.948.712,9.519,9.519,0,0,0-1.027-.007Z" transform="translate(-443.877 -296.568)"/>
  <path id="Path_100" data-name="Path 100" d="M514.633,331.729c-.415,0-.83,0-1.245,0-.454-.007-.6-.263-.523-.679a14.174,14.174,0,0,1,.4-1.845,1.02,1.02,0,0,1,.663-.589c.886-.135,1.788-.178,2.685-.229.392-.022.432.288.381.567-.136.743-.288,1.484-.465,2.219a.713.713,0,0,1-.76.568h-1.137Z" transform="translate(-397.172 -298.447)"/>
  <path id="Path_101" data-name="Path 101" d="M488.125,333.055c-.4,0-.794,0-1.191,0a.7.7,0,0,1-.767-.616,9.825,9.825,0,0,1-.154-1.667.686.686,0,0,1,.418-.516c.911-.109,1.829-.159,2.747-.193a.5.5,0,0,1,.381.29c.142.706.247,1.419.344,2.133.052.383-.143.568-.532.562-.415-.007-.83,0-1.245,0Z" transform="translate(-376.169 -299.762)"/>
  <path id="Path_102" data-name="Path 102" d="M433.832,335.306c-.416,0-.832.011-1.247,0-.462-.016-.613-.272-.408-.674.139-.272.3-.534.439-.8a1.179,1.179,0,0,1,1.1-.722c.719-.013,1.437-.117,2.157-.16.662-.039.839.226.552.813a9.863,9.863,0,0,1-.568,1.037.976.976,0,0,1-.941.52c-.359-.029-.722-.006-1.084-.006Z" transform="translate(-333.958 -302.012)"/>
  <path id="Path_103" data-name="Path 103" d="M337.822,340.838c-.452,0-.906.02-1.355-.012-.142-.01-.274-.158-.41-.243.11-.119.211-.332.332-.344q1.56-.154,3.127-.231c.111-.006.348.262.328.3-.095.184-.244.455-.4.471a15.242,15.242,0,0,1-1.623.022Z" transform="translate(-258.788 -307.545)"/>
  <path id="Path_104" data-name="Path 104" d="M233.793,290.453c-.452,0-.9-.006-1.356,0-.421.007-.616-.192-.53-.6q.448-2.146.92-4.286c.194-.88.418-1.754.6-2.635.191-.9.374-1.8.522-2.71a.626.626,0,0,1,.68-.614c1.211,0,2.423-.008,3.634.012a1.515,1.515,0,0,1,1.294,1.024,5.75,5.75,0,0,1,.322,3.92,10.427,10.427,0,0,1-1.457,3.634,4.526,4.526,0,0,1-4.361,2.262c-.09-.007-.181,0-.271,0Z" transform="translate(-177.247 -260.262)" fill="#fff"/>
  <path id="Path_105" data-name="Path 105" d="M319.34,279.553c.742,0,1.484-.018,2.225,0a1.155,1.155,0,0,1,1.249,1.4,3.035,3.035,0,0,1-2.726,2.767c-1.285.011-2.569,0-3.854.009-.4,0-.6-.2-.528-.569.2-1.027.432-2.047.66-3.069a.684.684,0,0,1,.8-.555c.723.022,1.447.006,2.171.006Z" transform="translate(-242.848 -260.213)" fill="#fff"/>
  <path id="Path_106" data-name="Path 106" d="M469.034,287.041a3.427,3.427,0,0,1,.317.721c.159,1.106.287,2.217.432,3.325.056.429.129.856.2,1.283.05.307-.042.5-.386.5-1.03,0-2.06.008-3.089,0-.336,0-.465-.173-.294-.5Z" transform="translate(-360.612 -266.084)" fill="#fff"/>
</svg>
