<svg id="Group_122" data-name="Group 122" xmlns="http://www.w3.org/2000/svg" width="162.636" height="53.481" viewBox="0 0 162.636 53.481">
  <path id="Path_62" data-name="Path 62" d="M132.089,229.907V204.8c0-.86.039-.9.9-.9H148.7c.771,0,.822.041.816.79-.036,4.568-.058,9.137-.126,13.7-.026,1.72-.175,3.438-.244,5.158-.035.862-.029,1.726-.007,2.589,0,.142.186.28.285.42.117-.108.316-.2.338-.325a16.6,16.6,0,0,1,1.907-4.7c.73-1.4,1.439-2.815,2.166-4.219.665-1.283,1.348-2.555,2.012-3.838.79-1.527,1.564-3.061,2.351-4.589q1.166-2.262,2.344-4.518a.856.856,0,0,1,.858-.485c6.027.013,12.053.007,18.08.015a2.717,2.717,0,0,1,.6.14,3.066,3.066,0,0,1-.208.564q-2.177,3.581-4.369,7.153c-.981,1.6-1.971,3.2-2.946,4.807-1.1,1.8-2.18,3.615-3.268,5.423-1.261,2.1-2.455,4.237-3.813,6.269a1.666,1.666,0,0,0,.052,2.2c1.6,2.373,3.122,4.8,4.667,7.2q2,3.119,3.981,6.25,2.555,4.016,5.108,8.034c.723,1.138,1.45,2.272,2.157,3.42a2.5,2.5,0,0,1,.187.648,2.758,2.758,0,0,1-.6.138q-9.6.011-19.2.013a.837.837,0,0,1-.856-.468c-.793-1.482-1.614-2.949-2.418-4.425q-.98-1.8-1.946-3.6c-1.084-2.034-2.138-4.085-3.248-6.105-.848-1.542-1.8-3.028-2.634-4.576a24.86,24.86,0,0,1-.941-2.322,1.511,1.511,0,0,0-.308-.356c-.115.15-.328.3-.33.449-.013.923.018,1.847.041,2.77.028,1.17.069,2.34.091,3.51q.125,6.814.239,13.628c.029,1.76.076,1.483-1.415,1.486q-7.5.013-15.008,0c-.909,0-1-.091-1-1.021Q132.088,242.522,132.089,229.907Z" transform="translate(-132.089 -203.886)"/>
  <path id="Path_63" data-name="Path 63" d="M660.968,226.955c-.186-.342-.354-.662-.531-.977a13.525,13.525,0,0,0-3.941-4.545,17.452,17.452,0,0,0-3.437-1.718,11.423,11.423,0,0,0-2.387-.574,10.668,10.668,0,0,0-4.521.5,11.523,11.523,0,0,0-5.828,3.766,16.6,16.6,0,0,0-3.189,5.488,28.479,28.479,0,0,0-1.173,4.512,24.408,24.408,0,0,0-.141,6.171,17.229,17.229,0,0,0,.952,3.961,21.776,21.776,0,0,0,1.545,3.709,12.266,12.266,0,0,0,4.042,4.6,25.433,25.433,0,0,0,3.133,1.7,6.05,6.05,0,0,0,1.982.473,26.3,26.3,0,0,0,3.334.074,9.929,9.929,0,0,0,5.721-2.366,11.179,11.179,0,0,0,3.036-3.634,9.9,9.9,0,0,0,1.356-4.39c.014-.746-.053-.82-.789-.82h-8.686c-.87,0-.918-.045-.918-.888,0-2.048.016-4.1-.01-6.145-.007-.568.188-.761.75-.76q9.838.018,19.675.009c.756,0,.789.031.784.867a37.454,37.454,0,0,1-.627,7.516,30.353,30.353,0,0,1-2.745,7.963,22.631,22.631,0,0,1-3.835,5.314,18.092,18.092,0,0,1-5.729,3.943,19.041,19.041,0,0,1-7.717,1.816c-1.768,0-3.539.023-5.3-.088a13.376,13.376,0,0,1-2.552-.607c-.734-.2-1.468-.4-2.184-.654a20.574,20.574,0,0,1-4.754-2.523,21.468,21.468,0,0,1-6.4-6.9A33.411,33.411,0,0,1,627.633,247a29.526,29.526,0,0,1-1.357-4.534,25.121,25.121,0,0,1-.433-3.917,29.838,29.838,0,0,1,.393-7.051,27.269,27.269,0,0,1,.973-3.679,31.465,31.465,0,0,1,1.633-4.194,33.247,33.247,0,0,1,2.291-3.609,20.359,20.359,0,0,1,4.217-4.428,17.227,17.227,0,0,1,4.828-2.874c1.1-.4,2.178-.862,3.3-1.168a32.388,32.388,0,0,1,3.345-.632,13.747,13.747,0,0,1,2.395-.279,26.2,26.2,0,0,1,6.975.913,21.179,21.179,0,0,1,7.894,4.154,22.6,22.6,0,0,1,5.078,6.283.639.639,0,0,1-.139.608c-1.567.881-3.154,1.725-4.737,2.577C663.225,225.746,662.159,226.316,660.968,226.955Z" transform="translate(-509.094 -209.041)"/>
  <path id="Path_64" data-name="Path 64" d="M379.87,239.35c.623.25,1.248.513,1.883.752a8.288,8.288,0,0,1,3.471,2.734,12.442,12.442,0,0,1,1.94,3.71,16.428,16.428,0,0,1,.848,5.529,21.174,21.174,0,0,1-.551,3.937,10.58,10.58,0,0,1-3.226,5.734,12.9,12.9,0,0,1-4.206,2.627,21.872,21.872,0,0,1-8.288,1.408q-6.765-.006-13.53,0c-1.085,0-1.085,0-1.085-1.054q0-23.869-.014-47.738c0-.465.177-.577.587-.576,4.53.011,9.06-.049,13.588.051a17,17,0,0,1,5.058.984,10.625,10.625,0,0,1,4.986,3.37,11.5,11.5,0,0,1,1.8,3.525,18.011,18.011,0,0,1,.626,7.341,11.3,11.3,0,0,1-1.191,4.209,9.258,9.258,0,0,1-2.392,3.019,2.6,2.6,0,0,0-.283.3C379.867,239.231,379.877,239.281,379.87,239.35Zm-13.214,11.882q0,3.041,0,6.081c0,.734.021.775.766.757a28.352,28.352,0,0,0,5.932-.329,7.228,7.228,0,0,0,3.2-1.484c1.517-1.32,1.795-3.156,1.912-5.01a6.4,6.4,0,0,0-.642-3.485,7.264,7.264,0,0,0-1.713-2.046,7.686,7.686,0,0,0-4.3-1.355c-1.4-.15-2.828-.105-4.243-.133-.8-.016-.909.1-.91.923Q366.652,248.192,366.656,251.232Zm0-20.708c0,1.911.015,3.821-.01,5.731-.007.526.213.723.693.707.983-.032,1.972-.023,2.948-.127a5.812,5.812,0,0,0,1.748-.484,4.472,4.472,0,0,0,2.669-3.281,9.911,9.911,0,0,0-.186-5.674,5.085,5.085,0,0,0-4.53-3.24c-.873-.114-1.771-.025-2.656-.056-.509-.018-.689.177-.683.693C366.669,226.7,366.655,228.613,366.655,230.524Z" transform="translate(-303.925 -213.445)"/>
  <path id="Path_65" data-name="Path 65" d="M515.325,245.285q0,9.807,0,19.613c0,.905,0,.9-.924.9h-7.621c-.985,0-.986,0-.986-.958q0-19.525,0-39.049c0-1.064-.113-1.135-1.2-1.125-2.678.024-5.356.009-8.034.02-.469,0-.685-.187-.683-.666q.011-3.514,0-7.028c0-.4.161-.582.564-.561.255.013.512,0,.768,0h27.175c.842,0,.847.01.853.863.015,2.283.043,4.566.035,6.849,0,.171-.208.378-.371.5-.105.078-.3.038-.461.037q-4.105-.013-8.211-.03c-.713,0-.9.179-.9.9Q515.325,235.419,515.325,245.285Z" transform="translate(-409.887 -213.467)"/>
</svg>
