<svg id="Group_123" data-name="Group 123" xmlns="http://www.w3.org/2000/svg" width="152.52" height="44.825" viewBox="0 0 152.52 44.825">
  <path id="Path_66" data-name="Path 66" d="M229.142,245.183c-.024.094-.021.153-.049.187-1.032,1.244-.893,2.676,1.132,2.852a34.721,34.721,0,0,0,5.1-.161c.891-.055,1.774-.234,2.662-.353,1.681-.225,3.373-.389,5.042-.685,1.888-.335,3.754-.791,5.631-1.188,2.117-.447,4.242-.862,6.352-1.337,1.656-.373,3.294-.826,4.943-1.226,1.492-.362,2.993-.69,4.484-1.054,1.58-.385,3.149-.821,4.734-1.185,1.172-.269,2.367-.438,3.542-.692,1.2-.258,2.375-.59,3.572-.844s2.424-.458,3.638-.675q2.395-.428,4.791-.842c2.186-.382,4.37-.771,6.558-1.14q3.046-.513,6.1-.987c1.368-.214,2.737-.426,4.112-.6,1.966-.245,3.936-.457,5.9-.675.995-.11,1.989-.241,2.987-.3,2.157-.123,4.316-.239,6.476-.294a15.657,15.657,0,0,1,5.512.928,2.615,2.615,0,0,1,1.568,3.534,9.763,9.763,0,0,1-1.717,3.374,13.893,13.893,0,0,1-4.824,3.516c-.059.028-.148-.008-.364-.025.244-.333.438-.605.64-.872a1.356,1.356,0,0,0-.639-2.275,7.676,7.676,0,0,0-2.4-.576c-3.577-.046-7.157-.059-10.732.044-2.352.068-4.7.315-7.045.557-2.256.233-4.5.568-6.753.851-1.25.157-2.507.266-3.752.454-1.74.263-3.47.592-5.208.866-.891.14-1.794.2-2.685.337-1.846.282-3.688.587-5.53.89-2.051.338-4.1.67-6.15,1.034-1.416.252-2.822.563-4.236.829-1.343.253-2.7.461-4.036.729-1.969.394-3.93.826-5.894,1.241a8.8,8.8,0,0,1-1.667.329c-1.207.012-1.712.765-2.077,1.738-.586,1.563-1.192,3.119-1.761,4.688a3.382,3.382,0,0,0-.076.881,7.133,7.133,0,0,0,.865-.048c1.362-.237,2.725-.474,4.08-.746s2.689-.6,4.039-.876c1.32-.269,2.647-.5,3.971-.75l.12.207c-.43.353-.882.682-1.286,1.062a14.659,14.659,0,0,1-4.047,2.943,22.085,22.085,0,0,1-5.48,1.793c-1.188.189-2.369.427-3.549.665a1.3,1.3,0,0,0-1.082.926c-1.283,3.338-2.647,6.645-4.01,9.952-.737,1.788-1.524,3.555-2.3,5.329a3.2,3.2,0,0,1-.35.585,1.179,1.179,0,0,1-1.943.335,2.815,2.815,0,0,1-1.409-3.188c.288-.812.665-1.593,1.005-2.386.817-1.9,1.641-3.807,2.453-5.713.6-1.41,1.174-2.832,1.783-4.238.26-.6.15-.714-.521-.772a34.266,34.266,0,0,1-4.359-.52c-1.734-.377-1.858-1.594-1.56-3.084.214.019.436.038.658.06a12.838,12.838,0,0,0,2.151.2c1.676-.12,3.344-.355,5.016-.527a.814.814,0,0,0,.782-.582c.825-2.038,1.7-4.053,2.546-6.083a1.881,1.881,0,0,0,.025-.635c-.209.019-.42.031-.628.059-.741.1-1.478.225-2.22.309-1.3.147-2.6.3-3.91.4-2.673.207-5.346.468-8.023.53a9.967,9.967,0,0,1-3.527-.624c-1.567-.565-1.726-1.839-.757-3.2a24.923,24.923,0,0,1,3.377-3.3C228.964,245.125,229.037,245.161,229.142,245.183Z" transform="translate(-224.963 -233.985)"/>
  <path id="Path_67" data-name="Path 67" d="M445.835,283.45c.568-.487,1.145-.964,1.7-1.463,1.311-1.173,2.6-2.372,3.924-3.53,1.088-.952,2.331-1.1,3.143-.394a1.5,1.5,0,0,1,.538.8,9.428,9.428,0,0,1-.373,4.265c-.539,1.578-1,3.185-1.472,4.784-.177.6-.513,1.157-.1,1.836a2.355,2.355,0,0,0,2.454,1.176c.566-.07,1.126-.18,1.693-.241,1.17-.126,1.345-1.153,1.7-1.946,1.207-2.713,2.351-5.455,3.511-8.189.755-1.779,1.491-3.566,2.248-5.344.846-1.988,1.668-3.987,2.572-5.949.98-2.127,2.025-4.224,3.072-6.32.672-1.346,1.215-1.465,2.382-.565a5.786,5.786,0,0,1,.928.921c.835,1.02.087,1.908-.324,2.77-1.534,3.222-3.116,6.42-4.683,9.627-.73,1.494-1.467,2.986-2.2,4.481-.082.169-.132.354-.254.686.318-.094.508-.1.62-.192,1.465-1.234,2.88-2.53,4.387-3.71a15.876,15.876,0,0,1,3.77-2.493,4.329,4.329,0,0,1,2.859.53c.555.248.3,1.042-.17,1.371a9.845,9.845,0,0,1-2.6,1.5,14.8,14.8,0,0,0-6.82,4.119c-.591.651-1.189,1.3-1.812,1.918-.393.392-.239.573.124.9,1.49,1.334,2.92,2.736,4.4,4.083.944.86,1.943,1.659,2.9,2.5a5.462,5.462,0,0,1,.569.689l-.119.173c-.277-.115-.553-.232-.831-.345-1.241-.5-2.464-1.06-3.729-1.493a14.741,14.741,0,0,1-4.706-2.854c-.789-.665-.971-.6-1.4.363-.637,1.415-1.265,2.839-2.01,4.2a2.217,2.217,0,0,1-1.278.969,10.055,10.055,0,0,1-2.546.2c-.267,0-.528-.337-.791-.519l.079-.26c-.585.131-1.183.222-1.754.4a8.389,8.389,0,0,1-4.477.27,3.029,3.029,0,0,1-2.391-3.575c.649-2.269,1.452-4.493,2.18-6.74a8.008,8.008,0,0,0,.359-1.406c.031-.242-.066-.671-.214-.726a.984.984,0,0,0-.833.136,17.7,17.7,0,0,0-1.847,1.761,48,48,0,0,0-3.454,4.062c-1.194,1.681-2.175,3.514-3.263,5.272-.581.94-.749,2.254-2.042,2.579a20.607,20.607,0,0,1-2.554.329l-.168-.252q.431-1.058.862-2.118,2.176-5.378,4.35-10.758c1.309-3.252,2.62-6.5,3.906-9.765.864-2.193,1.681-4.4,2.526-6.6.392-1.019,1.2-1.2,2.058-.473a3.111,3.111,0,0,1,.849,4.063c-1.282,3.084-2.488,6.2-3.742,9.292-.559,1.38-1.169,2.739-1.731,4.118a4.933,4.933,0,0,0-.187.943Z" transform="translate(-370.814 -253.138)"/>
  <path id="Path_68" data-name="Path 68" d="M336.106,315.314a2.525,2.525,0,0,1-.154.8c-.322.478-.145.819.214,1.148a1.231,1.231,0,0,0,1.428.265,3.176,3.176,0,0,0,2.007-2.468c.246-2.435.208-4.9.281-7.351,0-.04-.053-.082-.174-.255a8.978,8.978,0,0,0-.786.871,57.172,57.172,0,0,1-8.94,10.327,10.766,10.766,0,0,1-5.82,2.755,4.282,4.282,0,0,1-4.448-3.085,11.031,11.031,0,0,1-.645-3.628,24.818,24.818,0,0,1,.792-4.145c.052-.247.145-.486.29-.964a13.28,13.28,0,0,0-2.915.161,15.986,15.986,0,0,0-8.462,5.972,12.549,12.549,0,0,0-2.345,5.38,1.647,1.647,0,0,1-1.35,1.4,2.774,2.774,0,0,1-2.646-.217,1.042,1.042,0,0,1-.3-.862c.273-1.084.624-2.149.971-3.213.486-1.486.966-2.975,1.5-4.444.975-2.693,1.968-5.38,3-8.053.31-.806,1.414-1.046,2.643-.685.461,1.823-.739,3.4-.887,5.28,1.047-.617,1.934-1.16,2.841-1.669a13.8,13.8,0,0,1,8.184-1.432,2.956,2.956,0,0,1,.5.187,1.336,1.336,0,0,0,1.569-.427A12.9,12.9,0,0,1,327.7,303.2a5.029,5.029,0,0,1,3.625-.246c1.121.413,1.894,2.661,1.414,3.764a8.768,8.768,0,0,1-2.894,3.48c-1.64,1.232-3.435,2.258-5.163,3.373-.021.014-.035.04-.057.052-.418.217-1.129.365-1.2.663a6,6,0,0,0-.017,2.307c.134.8.9,1.182,1.868,1.142a6.591,6.591,0,0,0,3.454-1.406,30.194,30.194,0,0,0,7.535-7.39c1.633-2.3,3.05-4.761,4.566-7.148a24.3,24.3,0,0,1,1.419-2.167,1.239,1.239,0,0,1,2.032-.039,1.918,1.918,0,0,1,.453,2.308,9.553,9.553,0,0,0-1.078,5.081c.032,2.23-.074,4.467.064,6.689a7.969,7.969,0,0,1-4.34,6.883,6.329,6.329,0,0,1-4.8.063,2,2,0,0,1-1.052-2.855A4.952,4.952,0,0,1,336.106,315.314Zm-12.138-3.365c.722-.427,1.246-.7,1.725-1.027,1.9-1.315,3.677-2.724,4.538-5,.242-.642-.054-.85-.5-.766a4.345,4.345,0,0,0-1.818.706,15.481,15.481,0,0,0-3.881,5.215C323.943,311.247,324,311.5,323.968,311.949Z" transform="translate(-278.101 -278.815)"/>
  <path id="Path_69" data-name="Path 69" d="M629.922,262.78a4.936,4.936,0,0,0-.9-.211,24.069,24.069,0,0,1-3.026-.1,8.845,8.845,0,0,1-2.539-.922,1.527,1.527,0,0,1-.5-2.252,1.151,1.151,0,0,1,.916-.4c1.145.093,2.28.377,3.423.406a23.265,23.265,0,0,0,3.211-.287A1.721,1.721,0,0,0,631.851,258c1.261-2.383,2.539-4.758,3.788-7.147.53-1.014,2.492-1.624,3.39-.948a1.073,1.073,0,0,1,.311.956c-.383,1-.93,1.946-1.328,2.946-.451,1.132-.811,2.3-1.2,3.458a.479.479,0,0,0,.022.4c.074.073.273.061.4.031,1.143-.266,2.281-.555,3.426-.816q2.778-.635,5.562-1.243c1.538-.334,3.081-.645,4.623-.959a2.5,2.5,0,0,1,.526.077c-1.586,1.115-3,2.127-4.435,3.114a22.333,22.333,0,0,1-6.552,2.985c-1.029.3-2.092.473-3.137.712a12.971,12.971,0,0,0-2.22.568,2.117,2.117,0,0,0-1.005,1.037c-.606,1.428-1.085,2.91-1.654,4.354-.641,1.626-1.32,3.236-1.994,4.849-.848,2.027-1.712,4.048-2.561,6.075a22.6,22.6,0,0,1-1.149,2.757c-.671,1.145-1.4,1.372-2.406.511-.175-.15-.377-.269-.561-.409-1.18-.9-1.293-1.145-.723-2.516.974-2.343,2.021-4.655,3.028-6.984.995-2.3,1.976-4.608,2.968-6.909C629.255,264.249,629.55,263.61,629.922,262.78Z" transform="translate(-498.857 -244.751)"/>
  <path id="Path_70" data-name="Path 70" d="M552.89,312.254c1.393,0,2.062-.965,2.566-2.025a34.066,34.066,0,0,1,3.148-6.006,18.253,18.253,0,0,1,7.626-6.361,10.467,10.467,0,0,1,3.359-.656,2.424,2.424,0,0,1,2.175,3.681,13.9,13.9,0,0,1-4.756,5.042c-1.474,1.052-3.073,1.928-4.629,2.862-.343.206-.758.289-1.106.489a1.139,1.139,0,0,0-.659,1.46,9.8,9.8,0,0,0,.663,1.85c.368.619,1.836.823,2.632.493a19.062,19.062,0,0,0,7.8-6.123c1.092-1.4,2.218-2.779,3.34-4.158a2.429,2.429,0,0,1,.576-.5c.447-.285.719-.054.737.388a4.335,4.335,0,0,1-.186,1.191c-.408,1.645-1.645,2.728-2.685,3.953a31.064,31.064,0,0,1-6.693,6.038,10.611,10.611,0,0,1-6.046,2.032,7.575,7.575,0,0,1-4.047-1.229.831.831,0,0,1-.3-.245c-.464-.886-1.255-.939-2.139-1.03-.523-.054-1-.571-1.494-.879Zm8.857-5.577a.88.88,0,0,0,.253.1.578.578,0,0,0,.3-.064,16.514,16.514,0,0,0,5.457-4.867c.248-.4.424-1.21.209-1.447-.43-.475-1.029-.066-1.5.268A15.822,15.822,0,0,0,561.746,306.676Z" transform="translate(-450.734 -277.523)"/>
</svg>
